<svg xmlns="http://www.w3.org/2000/svg" width="20" height="22" viewBox="0 0 20 22">
    <g fill="none" fill-rule="evenodd">
        <g fill="#9A9AA7" fill-rule="nonzero">
            <g>
                <g>
                    <g>
                        <path d="M9.681.656c.188-.141.436-.141.624 0l7.945 6.022c.327.247.524.655.524 1.092l.05 13.087c0 .336-.248.608-.553.608H1.753c-.306 0-.553-.272-.553-.608L1.229 7.77c0-.437.196-.845.524-1.092L9.68.656zM6.487 17.424h7.153c.314 0 .569-.28.569-.626s-.255-.626-.57-.626H6.488c-.314 0-.57.28-.57.626s.256.626.57.626z" transform="translate(-103 -97) translate(38 41) translate(65 56)"/>
                    </g>
                </g>
            </g>
        </g>
    </g>
</svg>
