<svg xmlns="http://www.w3.org/2000/svg" width="22" height="22" viewBox="0 0 22 22">
    <g fill="none" fill-rule="evenodd">
        <g fill="#9A9AA7" fill-rule="nonzero">
            <g>
                <g>
                    <g>
                        <path d="M11 0c1.764-.002 3.502.42 5.067 1.234 1.39-.598 2.912-.897 4.558-.897.613 0 1.012.646.738 1.194-.499.995-.988 1.994-1.468 2.997C21.266 6.408 22.003 8.674 22 11c0 6.075-4.925 11-11 11S0 17.075 0 11 4.925 0 11 0zM6.325 7.212c-.608 0-1.1.493-1.1 1.1v1.65c0 .393.21.756.55.953.34.196.76.196 1.1 0 .34-.197.55-.56.55-.953v-1.65c0-.607-.492-1.1-1.1-1.1zm4.4 0c-.608 0-1.1.493-1.1 1.1v1.65c0 .393.21.756.55.953.34.196.76.196 1.1 0 .34-.197.55-.56.55-.953v-1.65c0-.607-.492-1.1-1.1-1.1z" transform="translate(-383 -96) translate(38 41) translate(345 55)"/>
                    </g>
                </g>
            </g>
        </g>
    </g>
</svg>
