<svg xmlns="http://www.w3.org/2000/svg" width="42" height="48" viewBox="0 0 42 48">
    <defs>
        <linearGradient id="weoaoil64a" x1="52.936%" x2="81.343%" y1="48.103%" y2="97.644%">
            <stop offset="0%" stop-color="#59C4FC"/>
            <stop offset="100%" stop-color="#386EF4"/>
        </linearGradient>
    </defs>
    <g fill="none" fill-rule="evenodd">
        <g fill="url(#weoaoil64a)" transform="translate(-234 -87)">
            <g>
                <g>
                    <g>
                        <path d="M23.164 1.393l17 10.938C41.31 13.067 42 14.335 42 15.695v17.418c0 1.404-.736 2.705-1.94 3.428l-17 10.22c-1.267.762-2.853.762-4.12 0l-17-10.22C.735 35.818 0 34.517 0 33.113V15.695c0-1.36.691-2.628 1.836-3.364l17-10.938c1.318-.849 3.01-.849 4.328 0z" transform="translate(38 41) translate(196 46)"/>
                    </g>
                </g>
            </g>
        </g>
    </g>
</svg>
