<?xml version="1.0" standalone="no"?><!DOCTYPE svg PUBLIC "-//W3C//DTD SVG 1.1//EN" "http://www.w3.org/Graphics/SVG/1.1/DTD/svg11.dtd">
<svg t="1608721088142" class="icon" viewBox="0 0 1024 1024" version="1.1" xmlns="http://www.w3.org/2000/svg" p-id="2303"
     width="16" height="16"><defs><style type="text/css"></style></defs><path d="M956.331431 74.908794L555.226317 0.597562a36.570488 36.570488 0 0 0-13.311658 0L138.542175 74.908794a36.570488 36.570488 0 0 0-29.987801 35.98536v475.416347c0 74.969501 23.624535 145.038556 70.215338 208.232359 36.131642 49.150736 86.16007 94.059296 148.622464 133.409141 104.299032 65.753738 207.427809 93.62045 211.743126 94.790706a36.570488 36.570488 0 0 0 19.016654 0c4.388459-1.243397 106.858966-29.695236 210.646012-95.814679 62.023548-39.496127 111.759412-84.331546 147.744772-133.409141 46.225097-63.120663 69.70335-132.824013 69.703351-207.208386v-475.416347a36.570488 36.570488 0 0 0-29.91466-35.98536z m-43.153176 511.401707c0 107.078389-61.365279 200.625698-182.267313 278.081992a804.843304 804.843304 0 0 1-182.486736 84.843532c-58.585922-17.99268-366.728856-124.120237-366.728855-362.925524V141.3208L548.570488 73.738538l364.534626 67.582262v444.989701zM392.048799 450.853412a36.570488 36.570488 0 1 0-51.710671 51.710671L485.669249 647.748921a36.424206 36.424206 0 0 0 26.038187 10.678582 36.424206 36.424206 0 0 0 26.038188-10.678582l236.976763-227.761001a36.570488 36.570488 0 0 0-51.783811-51.71067l-210.719153 202.600505-119.951201-120.024343z" fill="#CD0000" p-id="2304"></path></svg>
