<?xml version="1.0" standalone="no"?><!DOCTYPE svg PUBLIC "-//W3C//DTD SVG 1.1//EN" "http://www.w3.org/Graphics/SVG/1.1/DTD/svg11.dtd">
<svg t="1608721068085" class="icon" viewBox="0 0 1024 1024" version="1.1" xmlns="http://www.w3.org/2000/svg" p-id="1928"
     width="16" height="16"><defs><style type="text/css"></style></defs><path d="M462.994286 732.525714a56.027429 56.027429 0 1 0 112.054857 0 56.027429 56.027429 0 0 0-112.054857 0zM385.609143 278.089143c-36.937143 40.228571-77.019429 158.134857 9.069714 160.182857 48.054857 1.170286 47.616-28.672 50.029714-35.84 2.413714-7.094857 7.314286-40.740571 21.723429-54.857143 14.555429-13.970286 21.650286-20.992 44.178286-20.992 22.089143 0 39.643429 5.851429 52.809143 17.408 13.165714 11.556571 19.748571 25.6 19.748571 41.910857a62.756571 62.756571 0 0 1-8.045714 32.548572c-5.412571 9.069714-20.918857 25.673143-46.811429 49.810285-26.770286 25.234286-46.445714 52.150857-58.368 80.749715-25.892571 62.464 69.851429 81.627429 89.161143 53.833143 18.870857-27.282286 7.899429-32.548571 53.174857-77.750858 22.674286-21.357714 36.864-36.790857 42.788572-46.08 10.24-15.36 17.554286-30.573714 22.162285-45.348571A159.085714 159.085714 0 0 0 662.308571 307.2c-44.544-78.262857-184.100571-129.828571-276.699428-29.257143zM512 0a512.512 512.512 0 0 0-512 512 512.512 512.512 0 0 0 512 512 512.512 512.512 0 0 0 512-512 512.512 512.512 0 0 0-512-512z m0 950.784A439.296 439.296 0 0 1 73.216 512 439.296 439.296 0 0 1 512 73.216 439.296 439.296 0 0 1 950.784 512 439.296 439.296 0 0 1 512 950.784z" fill="#0047cc" p-id="1929"></path></svg>
