<?xml version="1.0" standalone="no"?><!DOCTYPE svg PUBLIC "-//W3C//DTD SVG 1.1//EN" "http://www.w3.org/Graphics/SVG/1.1/DTD/svg11.dtd">
<svg t="1608720843202" class="icon" viewBox="0 0 1194 1024" version="1.1" xmlns="http://www.w3.org/2000/svg" p-id="1463"
     width="37.3125" height="32"><defs><style type="text/css"></style></defs><path d="M1185.706667 74.154667c0-40.96-33.194667-74.154667-74.069334-74.154667H74.154667C33.194667 0 0 33.28 0 74.154667v148.224h1185.621333V74.24h0.085334z m0 222.208H0.170667v598.186666c0 37.973333 30.72 68.778667 68.778666 68.778667h1047.978667c37.973333 0 68.778667-30.72 68.778667-68.778667V296.448z m-759.466667 444.672H129.877333a37.034667 37.034667 0 0 1 0-74.069334h296.362667a37.034667 37.034667 0 0 1 0 74.069334z m74.24-148.224H129.792a37.034667 37.034667 0 0 1 0-74.154667h370.517333a37.034667 37.034667 0 0 1 0 74.154667z m280.832 0h-74.154667a36.949333 36.949333 0 1 1 0-74.154667h74.24a37.034667 37.034667 0 0 1 0 74.154667z" fill="#0047cc" p-id="1464"></path></svg>
