<?xml version="1.0" standalone="no"?><!DOCTYPE svg PUBLIC "-//W3C//DTD SVG 1.1//EN" "http://www.w3.org/Graphics/SVG/1.1/DTD/svg11.dtd"><svg t="1608721043811" class="icon" viewBox="0 0 1194 1024" version="1.1" xmlns="http://www.w3.org/2000/svg" p-id="1773" width="18.65625" height="16" xmlns:xlink="http://www.w3.org/1999/xlink"><defs><style type="text/css"></style></defs><path d="M1193.517347 932.70292a447.099721 447.099721 0 0 0-263.225694-397.440936 298.294012 298.294012 0 0 0 115.785176-236.092543A299.147256 299.147256 0 0 0 597.867891 39.783343a299.147256 299.147256 0 0 0-448.208939 259.386098c0 95.733948 45.05127 180.972998 115.187906 235.751246a447.099721 447.099721 0 0 0-263.822966 393.174716C0 931.935 0 944.477683 0 944.477683a49.573461 49.573461 0 0 0 99.317572 0l0.853243-1.706487A348.464745 348.464745 0 0 1 418.942678 596.695534a302.304258 302.304258 0 0 0 59.89771 0 348.37942 348.37942 0 0 1 318.601214 347.867474 49.573461 49.573461 0 0 0 99.232247 0s-0.682595-9.55633-1.023892-11.945413a445.90518 445.90518 0 0 0-162.969555-334.812844c4.692841 0.255973 35.153642-0.170649 44.027377-1.109217 18.34474-1.706487 36.177535-5.290111 53.413058-10.238925 117.23569 50.853327 262.116478 162.28696 264.846858 350.683178l0.170649 6.228679 0.085324 1.194542a49.658786 49.658786 0 0 0 99.317572 0s-0.682595-9.385681-1.023893-11.68944zM448.208938 504.289236a204.949147 204.949147 0 1 1 0-409.898294 204.949147 204.949147 0 0 1 0 409.898294z m381.997224-21.331093z m9.300356-8.873735a69.198068 69.198068 0 0 0-9.385681 4.69284 197.952548 197.952548 0 0 1-62.62809 17.491497l-19.624606 1.109217h-1.962461a198.805792 198.805792 0 0 1-63.993281-10.494898 297.440769 297.440769 0 0 0 66.297039-187.713623c0-71.501826-25.17069-137.201594-67.150283-188.652192a198.976441 198.976441 0 0 1 158.447363 363.567159z" fill="#0047cc" p-id="1774"></path></svg>