<?xml version="1.0" standalone="no"?><!DOCTYPE svg PUBLIC "-//W3C//DTD SVG 1.1//EN" "http://www.w3.org/Graphics/SVG/1.1/DTD/svg11.dtd"><svg t="1608721085325" class="icon" viewBox="0 0 1024 1024" version="1.1" xmlns="http://www.w3.org/2000/svg" p-id="2178" xmlns:xlink="http://www.w3.org/1999/xlink" width="16" height="16"><defs><style type="text/css"></style></defs><path d="M825.856 356.205714a656.384 656.384 0 0 0-75.849143-72.045714c-3.876571-3.145143-6.875429-5.339429-10.24-8.045714 47.981714-17.408 81.554286-59.245714 81.554286-108.836572 0-66.633143-59.757714-117.686857-130.706286-117.686857-15.36 0-30.573714 2.925714-44.836571 8.704-5.12 2.048-10.093714 4.534857-14.774857 7.460572C628.443429 66.852571 623.177143 65.609143 621.714286 63.707429A149.942857 149.942857 0 0 0 596.260571 33.645714C573.659429 12.8 547.035429 0 516.388571 0c-30.500571 0-57.197714 12.8-79.725714 33.645714-9.581714 8.704-17.993143 18.578286-25.014857 29.476572-2.121143 2.56-7.460571 3.876571-9.289143 2.925714a98.011429 98.011429 0 0 0-15.36-7.753143A119.222857 119.222857 0 0 0 342.308571 49.590857c-70.948571 0-130.633143 51.053714-130.633142 117.76 0 42.276571 24.649143 78.994286 61.732571 99.693714a604.16 604.16 0 0 0-87.552 80.457143C115.712 426.057143 73.142857 515.949714 73.142857 615.716571 73.142857 892.416 267.702857 1024 501.906286 1024c98.230857 0 194.194286-20.772571 271.872-69.778286 105.472-66.56 165.376-178.322286 165.376-338.505143 0-93.769143-42.861714-180.882286-113.298286-259.584z m-323.949714 605.988572c-206.189714 0-370.688-111.323429-370.688-346.477715 0-81.700571 35.913143-157.622857 96.694857-225.718857 20.845714-23.332571 43.666286-44.836571 68.242286-64.219428a482.011429 482.011429 0 0 1 30.134857-21.942857c32.694857-22.893714 29.622857-63.268571-2.413715-80.457143l0.073143-0.438857-0.146285-0.073143-0.438858-0.219429-1.097142-0.585143-1.462858-0.731428-0.877714-0.438857-0.658286-0.219429-0.073142-0.073143-3.437715-1.316571c-28.306286-8.777143-46.08-29.988571-46.08-52.004572 0-29.257143 31.305143-55.881143 72.630857-55.881143 10.971429 0 21.723429 2.706286 31.232 8.045715l3.584 2.194285c26.258286 13.531429 59.977143 5.046857 78.848-18.578285l2.413715-3.657143a92.16 92.16 0 0 1 16.310857-19.017143c12.8-11.849143 26.843429-18.651429 41.837714-18.651429 14.921143 0 28.891429 6.802286 41.764572 18.651429 8.118857 7.460571 13.824 14.921143 16.237714 19.017143l1.974857 2.998857a65.097143 65.097143 0 0 0 78.774857 19.529143l4.096-2.486857a64.731429 64.731429 0 0 1 31.232-8.045715c41.398857 0 72.630857 26.697143 72.630857 55.881143 0 21.942857-17.773714 43.154286-46.08 51.931429l-4.096 1.682286a90.697143 90.697143 0 0 1-15.579428 6.509714c-40.740571 13.312-47.616 57.344-14.628572 81.92l9.362286 6.582857c33.353143 24.356571 64 52.150857 91.574857 82.870857 61.147429 68.315429 97.28 141.750857 97.28 216.941714 0 247.369143-157.037714 346.477714-379.172571 346.477715z m121.051428-363.958857c13.312 0 24.137143-11.702857 24.137143-26.185143 0-14.482286-10.825143-26.258286-24.137143-26.258286H524.068571L615.862857 446.390857a27.794286 27.794286 0 0 0 0-37.083428 22.966857 22.966857 0 0 0-34.230857 0l-79.652571 86.308571-79.725715-86.308571a22.966857 22.966857 0 0 0-34.157714 0 27.867429 27.867429 0 0 0 0 37.083428l91.794286 99.474286H381.001143c-13.312 0-24.210286 11.702857-24.210286 26.185143 0 14.482286 10.898286 26.185143 24.137143 26.185143h96.841143v26.258285H381.074286c-13.312 0-24.210286 11.702857-24.210286 26.185143 0 14.482286 10.898286 26.258286 24.137143 26.258286h96.841143v75.483428c0 11.044571 10.825143 20.041143 24.137143 20.041143 13.385143 0 24.210286-8.996571 24.210285-20.041143V676.937143h96.841143c13.312 0 24.137143-11.702857 24.137143-26.258286 0-14.482286-10.825143-26.185143-24.137143-26.185143H526.116571v-26.258285h96.841143z" fill="#f67d36" p-id="2179"></path></svg>