<?xml version="1.0" standalone="no"?><!DOCTYPE svg PUBLIC "-//W3C//DTD SVG 1.1//EN" "http://www.w3.org/Graphics/SVG/1.1/DTD/svg11.dtd">
<svg t="1608721093808" class="icon" viewBox="0 0 1194 1024" version="1.1" xmlns="http://www.w3.org/2000/svg" p-id="2428"
     width="18.65625" height="16"><defs><style type="text/css"></style></defs><path d="M434.176 0c224.170667 0 409.258667 147.370667 431.786667 335.701333C1049.258667 345.856 1194.666667 477.781333 1194.666667 638.634667c0 88.832-44.885333 172.970667-123.050667 230.826666l-4.778667 3.413334 1.28 5.802666c4.010667 17.92 11.264 43.52 18.517334 65.621334a39.338667 39.338667 0 0 1-25.258667 50.005333 39.424 39.424 0 0 1-39.936-9.216c-21.845333-21.333333-46.933333-43.690667-62.464-55.808l-3.669333-2.816-4.352 1.194667c-34.986667 9.642667-71.082667 14.506667-107.349334 14.506666-152.149333 0-281.770667-83.029333-331.178666-199.253333l24.746666-4.522667a502.613333 502.613333 0 0 1-240.64-8.533333l-3.498666-1.109333-3.242667 1.792c-24.746667 13.397333-78.250667 52.309333-115.968 82.090666a39.68 39.68 0 0 1-60.416-47.786666c15.786667-33.792 31.829333-72.618667 40.021333-96.768l2.048-6.229334-5.205333-3.925333C54.613333 586.581333 0 483.242667 0 374.442667 0 167.936 194.730667 0 434.176 0z m408.661333 414.037333c-150.357333 0-272.64 100.693333-272.64 224.512 0 123.733333 122.282667 224.426667 272.64 224.426667 35.584 0 70.144-5.461333 102.741334-16.469333a43.178667 43.178667 0 0 1 13.653333-2.218667c5.205333 0 9.642667 0 16.896 2.816l9.216 3.669333 2.816-9.557333c2.816-9.984 8.533333-17.152 18.602667-23.381333 69.12-43.008 108.714667-108.373333 108.714666-179.2 0-123.818667-122.282667-224.597333-272.64-224.597334zM434.090667 79.189333C238.506667 79.189333 79.189333 211.626667 79.189333 374.442667c0 92.16 50.602667 177.493333 138.837334 234.069333 15.104 9.728 21.504 23.808 20.138666 44.288l-1.109333 16.213333 14.506667-7.68c17.578667-9.472 30.976-14.08 40.789333-14.08 5.461333 0 9.557333 1.28 14.336 2.816a426.666667 426.666667 0 0 0 186.026667 15.701334 234.24 234.24 0 0 1-1.621334-27.221334c0-150.869333 128.170667-276.394667 295.424-299.776C765.354667 192.853333 615.338667 79.189333 434.176 79.189333zM938.666667 511.829333c11.264 0 21.76 4.437333 29.696 12.544 7.850667 8.106667 12.202667 18.773333 12.202666 30.122667 0 23.552-18.773333 42.666667-41.813333 42.666667h-0.085333a41.301333 41.301333 0 0 1-29.696-12.629334 42.837333 42.837333 0 0 1-12.202667-30.037333c0-23.552 18.773333-42.666667 41.898667-42.666667z m-206.250667 0c23.04 0 41.813333 19.114667 41.813333 42.581334 0 23.381333-18.773333 42.496-41.813333 42.496a42.24 42.24 0 0 1-41.813333-42.496c0-23.466667 18.773333-42.581333 41.813333-42.581334zM297.813333 210.261333c28.757333 0 52.138667 21.845333 52.138667 48.64 0 26.88-23.381333 48.64-52.138667 48.64-28.842667 0-52.224-21.76-52.224-48.64 0-26.794667 23.381333-48.64 52.224-48.64z m279.893334 0c28.757333 0 52.053333 21.845333 52.053333 48.64 0 26.88-23.296 48.64-52.053333 48.64-28.842667 0-52.224-21.76-52.224-48.64 0-26.794667 23.381333-48.64 52.138666-48.64z" fill="#CD0000" p-id="2429"></path></svg>
