<?xml version="1.0" standalone="no"?><!DOCTYPE svg PUBLIC "-//W3C//DTD SVG 1.1//EN" "http://www.w3.org/Graphics/SVG/1.1/DTD/svg11.dtd"><svg t="1608721113709" class="icon" viewBox="0 0 1024 1024" version="1.1" xmlns="http://www.w3.org/2000/svg" p-id="2803" xmlns:xlink="http://www.w3.org/1999/xlink" width="16" height="16"><defs><style type="text/css"></style></defs><path d="M245.543828 1023.967818c-16.310345 0-32.474408-4.973558-46.297973-14.774393a83.599658 83.599658 0 0 1-34.229781-82.50255l43.518632-267.694443L24.001077 469.781807a84.331064 84.331064 0 0 1-19.455389-86.013297c9.947116-29.695067 34.961187-50.832688 65.314519-55.586824l253.212613-38.691356L436.660108 47.395082a80.966598 80.966598 0 0 1 147.231944 0l113.660428 242.095248 253.212613 38.764496c30.353332 4.534715 55.294262 25.818617 65.241378 55.513684 10.239678 30.353332 2.779341 63.339724-19.455389 86.013297L811.944313 658.996432l43.664913 267.621303c5.26612 32.254986-7.89918 63.924848-34.229781 82.57569-25.452914 17.846296-58.073603 19.67481-85.355032 4.680996l-225.784904-124.850933-225.858044 124.850933a81.917425 81.917425 0 0 1-38.910777 10.093397z m264.768822-230.904743c13.384722 0 26.623163 3.291325 38.910777 10.093397l210.132824 116.147207-40.739291-249.701866c-4.388434-26.476882 4.095871-53.68517 22.746714-72.701716l174.659654-178.974946-239.169626-36.570279a81.917425 81.917425 0 0 1-61.657491-46.517395L510.31265 111.466211 405.282808 334.837477a81.917425 81.917425 0 0 1-61.58435 46.517395l-239.242767 36.570279L279.188485 596.826957c18.577702 19.016545 27.062007 46.078552 22.746714 72.701715L261.195908 919.37682l210.132824-116.147207c12.287614-6.802072 25.599195-10.093397 38.983918-10.093397z" fill="#0047cc" p-id="2804"></path></svg>