<?xml version="1.0" standalone="no"?><!DOCTYPE svg PUBLIC "-//W3C//DTD SVG 1.1//EN" "http://www.w3.org/Graphics/SVG/1.1/DTD/svg11.dtd">
<svg t="1608720955100" class="icon" viewBox="0 0 1097 1024" version="1.1" xmlns="http://www.w3.org/2000/svg" p-id="1648"
     width="34.28125" height="32"><defs><style type="text/css"></style></defs><path d="M1096.338286 335.652571a42.642286 42.642286 0 0 0-42.715429-42.642285H114.980571a42.642286 42.642286 0 0 0-42.642285 42.642285v635.757715c0 23.552 19.017143 42.642286 42.642285 42.642285h938.642286a42.642286 42.642286 0 0 0 42.715429-42.642285v-162.157715H825.344a155.794286 155.794286 0 0 1 0-311.442285H1096.411429V335.652571zM733.622857 653.531429a91.721143 91.721143 0 1 0 183.515429 0 91.721143 91.721143 0 0 0-183.515429 0z m260.315429-400.237715L940.982857 67.876571a35.254857 35.254857 0 0 0-43.593143-24.137142L157.769143 253.293714h836.169143z" fill="#CD0000" p-id="1649"></path></svg>
