<?xml version="1.0" standalone="no"?><!DOCTYPE svg PUBLIC "-//W3C//DTD SVG 1.1//EN" "http://www.w3.org/Graphics/SVG/1.1/DTD/svg11.dtd">
<svg t="1608721107406" class="icon" viewBox="0 0 1181 1024" version="1.1" xmlns="http://www.w3.org/2000/svg" p-id="2678"
     width="18.453125" height="16"><defs><style type="text/css"></style></defs><path d="M137.846154 952.162462c-48.049231 0-86.961231-40.014769-86.961231-89.324308 0-49.309538 38.990769-89.324308 87.04-89.324308s87.04 40.014769 87.04 89.324308c0 49.309538-38.990769 89.324308-87.04 89.324308z m0-357.297231c-48.049231 0-86.961231-40.014769-86.961231-89.324308 0-49.309538 38.990769-89.324308 87.04-89.324308s87.04 40.014769 87.04 89.324308c0 49.309538-38.990769 89.324308-87.04 89.324308z m0-357.297231c-48.049231 0-86.961231-40.014769-86.961231-89.324308 0-49.388308 38.990769-89.403077 87.04-89.403077s87.04 40.014769 87.04 89.403077c0 49.309538-38.990769 89.324308-87.04 89.324308z m1015.808-92.947692c0 28.356923-19.298462 51.357538-43.165539 51.357538H433.467077c-23.867077 0-43.244308-23.000615-43.244308-51.436308 0-28.356923 19.377231-51.357538 43.244308-51.357538h677.021538c23.867077 0 43.165538 23.000615 43.165539 51.357538z m0 359.817846c0 28.356923-19.298462 51.436308-43.165539 51.436308H433.467077c-23.867077 0-43.244308-23.000615-43.244308-51.436308 0-28.356923 19.377231-51.436308 43.244308-51.436308h677.021538c23.867077 0 43.165538 23.079385 43.165539 51.436308z m0 359.896615c0 28.356923-19.298462 51.357538-43.165539 51.357539H433.467077c-23.867077 0-43.244308-23.000615-43.244308-51.357539 0-28.356923 19.377231-51.436308 43.244308-51.436307h677.021538c23.867077 0 43.165538 23.000615 43.165539 51.436307z" fill="#A30C25" p-id="2679"></path></svg>
