<?xml version="1.0" standalone="no"?><!DOCTYPE svg PUBLIC "-//W3C//DTD SVG 1.1//EN" "http://www.w3.org/Graphics/SVG/1.1/DTD/svg11.dtd"><svg t="1608721102929" class="icon" viewBox="0 0 1024 1024" version="1.1" xmlns="http://www.w3.org/2000/svg" p-id="2553" xmlns:xlink="http://www.w3.org/1999/xlink" width="16" height="16"><defs><style type="text/css"></style></defs><path d="M365.500822 6.258579A31.962127 31.962127 0 0 1 400.095985 4.137523l385.812863 217.225442 145.840919 34.595162h59.535862a31.888987 31.888987 0 0 1 10.239583 62.315178c-19.016369 6.509449-73.578719 32.547246-73.578718 65.606471 0 13.750297 9.800744 21.503125 33.790624 37.520758 26.184077 17.407291 62.168897 41.397172 62.168897 90.400891s-35.838541 72.55476-62.022617 89.888912c-24.13616 15.871354-33.936904 23.770461-33.936904 37.959597 0 13.384598 9.581324 21.064285 33.351785 36.862499 26.403496 17.553571 62.461457 41.470312 62.461456 91.05915 0 48.784299-35.765401 72.77418-61.949477 90.254611-24.13616 16.090773-33.863764 23.98988-33.863764 37.667038 0 32.912946 54.63549 58.950743 73.871278 65.460192a19.455208 19.455208 0 0 1 2.925595 1.097098l0.365699 0.21942a32.035267 32.035267 0 0 1-13.165178 61.144939H32.056112A31.962127 31.962127 0 0 1 0.020845 991.452754v-244.799176a31.962127 31.962127 0 1 1 63.924254 0v212.837048h823.555041a101.445013 101.445013 0 0 1-23.551041-63.997394c0-49.149999 35.984821-73.286159 62.315177-90.83973 23.843601-16.017634 33.571205-23.770461 33.571205-37.081919 0-13.969717-9.727604-21.795684-33.790624-37.740178-26.110937-17.334151-61.949478-41.104612-61.949478-90.181471 0-49.954538 36.1311-73.944418 62.680877-91.424849 25.745238-16.968452 33.278645-23.770461 33.278645-36.4968 0-13.457738-9.800744-21.283705-33.717485-37.155058-26.330357-17.553571-62.388317-41.470312-62.388317-90.693451 0-17.553571 4.900372-40.446353 23.551041-63.997394H74.550382a31.157589 31.157589 0 0 1-10.605283 1.974777v155.056544a31.962127 31.962127 0 1 1-63.924254 0V287.773975c0-17.626711 14.262276-31.962127 31.962127-31.962127H40.979177l55.147469-168.806842A31.815847 31.815847 0 0 1 133.939964 65.867581l113.366813 27.061755z m306.456094 809.292765c17.626711 0 32.035267 14.408556 32.035267 31.962127v63.997395c0 17.553571-14.408556 31.962127-31.962127 31.962127a32.108407 32.108407 0 0 1-32.035267-31.962127v-63.997395c0-17.553571 14.408556-31.962127 32.035267-31.962127zM201.009233 424.25299a32.035267 32.035267 0 0 1 45.200446 0.146279l106.272244 106.784224 105.321426-105.321426a32.035267 32.035267 0 0 1 45.273586 45.346725L429.644496 544.421811h82.648064a31.962127 31.962127 0 1 1 0 63.997395H384.370911v63.924254h127.994788a31.962127 31.962127 0 1 1 0 63.997395h-127.994788v95.886381a31.962127 31.962127 0 1 1-63.924255 0v-95.886381H192.378727a31.962127 31.962127 0 1 1 0-63.997395v0.14628h127.994789V608.565486H192.378727a31.962127 31.962127 0 1 1 0-63.924255h83.013763l-74.602676-75.114656a32.035267 32.035267 0 0 1 0-45.273585z m471.020823 231.414578c17.626711 0 32.035267 14.335416 32.035267 31.962127v63.924255c0 17.553571-14.408556 32.035267-31.962127 32.035267a32.108407 32.108407 0 0 1-32.035267-32.035267v-63.924255c0-17.553571 14.408556-31.962127 32.035267-31.962127z m-639.973944-114.829611c17.699851 0 31.962127 14.262276 31.962127 31.962128v66.776709a31.962127 31.962127 0 1 1-63.924254 0V572.726945c0-17.699851 14.262276-31.962127 31.962127-31.962128z m639.973944-44.907886c17.626711 0 32.035267 14.408556 32.035267 31.962128v63.997394c0 17.553571-14.408556 31.962127-31.962127 31.962127a32.108407 32.108407 0 0 1-32.035267-31.962127v-63.997394c0-17.553571 14.408556-31.962127 32.035267-31.962128z m0-159.810636c17.626711 0 32.035267 14.408556 32.035267 32.035267v63.924255c0 17.553571-14.408556 31.962127-31.962127 31.962127a32.108407 32.108407 0 0 1-32.035267-31.962127v-63.924255c0-17.553571 14.408556-32.035267 32.035267-32.035267zM147.763401 134.984767l-39.495535 120.900221h547.305717L147.763401 134.984767zM386.711387 70.036554l-57.707365 42.27485 230.683179 54.92805L386.711387 69.963414z" fill="#f67d36" p-id="2554"></path></svg>