<?xml version="1.0" standalone="no"?><!DOCTYPE svg PUBLIC "-//W3C//DTD SVG 1.1//EN" "http://www.w3.org/Graphics/SVG/1.1/DTD/svg11.dtd">
<svg t="1608721120461" class="icon" viewBox="0 0 1024 1024" version="1.1" xmlns="http://www.w3.org/2000/svg" p-id="2928"
     width="16" height="16"><defs><style type="text/css"></style></defs><path d="M98.51991 909.316096h876.220135a49.223385 49.223385 0 0 1 0 98.44677H49.223385A49.223385 49.223385 0 0 1 0 958.539481V49.259955a49.223385 49.223385 0 0 1 98.51991 0v860.056141z m385.22967-429.040677l-72.555123 240.631406a49.223385 49.223385 0 0 1-88.499696 12.653262L153.375094 472.303132a49.223385 49.223385 0 1 1 82.648477-53.538659l111.538873 172.025856 48.053141-159.445734a49.223385 49.223385 0 0 1 25.379665-29.987501l200.843113-98.73933a49.223385 49.223385 0 0 1 62.169208 16.090854l95.37488 136.991678L917.324953 54.160351a49.223385 49.223385 0 1 1 93.107532 32.035428L841.112817 579.526731a49.223385 49.223385 0 0 1-87.036891 12.141281L627.323881 409.621942l-143.574301 70.653477z" fill="#A30C25" p-id="2929"></path></svg>
