<svg xmlns="http://www.w3.org/2000/svg" width="28" height="28" viewBox="0 0 28 28">
    <defs>
        <linearGradient id="pbsvm3iyja" x1="50%" x2="50%" y1="0%" y2="100%">
            <stop offset="0%" stop-color="#EFCEA6"/>
            <stop offset="100%" stop-color="#DAB591"/>
        </linearGradient>
    </defs>
    <g fill="none" fill-rule="evenodd">
        <g fill="url(#pbsvm3iyja)" transform="translate(-80 -106)">
            <g>
                <g>
                    <path d="M24 0c-7.732 0-14 6.268-14 14s6.268 14 14 14 14-6.268 14-14S31.732 0 24 0zm6.528 20.678c-.42.428-1.127.634-2.122.618h-1.803c-1.388 0-2.083-.777-2.083-2.331V14.72l-1.748.078c-.26 3.565-1.93 5.855-5.013 6.87-.632-.86-1.156-1.528-1.57-2.005 2.673-.74 4.15-2.324 4.43-4.749-1.057.068-1.865.138-2.425.21l-.808-1.85c1.155-.683 2.368-1.756 3.637-3.217h-4.585V8.006h6.326l-.56-1.29 2.27-.497.73 1.787h6.094v2.052h-7.454c-.922 1.01-1.945 2.01-3.07 3 1.456-.02 3.42-.073 5.891-.155l-1.663-1.633 1.524-1.18c1.595 1.377 3.124 2.781 4.585 4.212l-1.601 1.507-1.166-1.212-1.647.054v3.94c0 .54.274.809.823.809h.607c.455 0 .756-.144.901-.431.145-.288.28-1.056.404-2.305.58.27 1.306.555 2.176.855-.3 1.679-.66 2.732-1.08 3.16z" transform="translate(24 96) translate(46 10)"/>
                </g>
            </g>
        </g>
    </g>
</svg>
