<svg xmlns="http://www.w3.org/2000/svg" width="12" height="12" viewBox="0 0 12 12">
    <g fill="none" fill-rule="evenodd">
        <g fill="#8F8F8F">
            <g>
                <g>
                    <g>
                        <path d="M7.605 5.79l4.25-4.25c.194-.194.194-.486 0-.68l-.682-.682c-.195-.194-.487-.194-.681 0L6.243 4.427c-.13.13-.324.13-.454 0L1.541.146c-.195-.195-.487-.195-.682 0L.18.827c-.195.195-.195.487 0 .681l4.248 4.249c.13.13.13.324 0 .454L.146 10.49c-.195.195-.195.487 0 .682l.681.681c.195.195.487.195.681 0L5.79 7.605c.13-.13.325-.13.454 0l4.249 4.25c.194.194.486.194.681 0l.681-.682c.195-.195.195-.487 0-.681L7.605 6.243c-.097-.13-.097-.324 0-.454z" transform="translate(-344 -445) translate(0 429) translate(1) translate(343 16)"/>
                    </g>
                </g>
            </g>
        </g>
    </g>
</svg>
