<svg xmlns="http://www.w3.org/2000/svg" width="22" height="22" viewBox="0 0 22 22">
    <g fill="none" fill-rule="evenodd">
        <g fill="#606070" fill-rule="nonzero">
            <g>
                <g>
                    <path d="M10.65.656c.206-.141.479-.141.686 0l8.739 6.022c.36.247.576.655.576 1.092l.055 13.087c0 .336-.272.608-.608.608H1.928c-.336 0-.608-.272-.608-.608L1.352 7.77c0-.437.215-.845.576-1.092L10.649.656zM7.134 17.424h7.869c.345 0 .625-.28.625-.626s-.28-.626-.625-.626H7.135c-.345 0-.625.28-.625.626s.28.626.625.626z" transform="translate(-35 -745) translate(0 729) translate(35 16)"/>
                </g>
            </g>
        </g>
    </g>
</svg>
