<svg xmlns="http://www.w3.org/2000/svg" width="20" height="20" viewBox="0 0 20 20">
    <g fill="none" fill-rule="evenodd">
        <g fill="#9A9AA7">
            <g>
                <g>
                    <g>
                        <path d="M19.66 19.228l-1.345-7.756h.454c.366 0 .66-.294.66-.66V5.94c0-.365-.294-.66-.66-.66h-6.244V.66c0-.365-.294-.659-.66-.659h-4.06c-.366 0-.66.294-.66.66v4.62H.9c-.365 0-.66.294-.66.66v4.872c0 .366.295.66.66.66h.454L.01 19.228c-.007.038-.01.077-.01.112 0 .366.294.66.66.66h18.35c.038 0 .076-.003.112-.01.36-.061.601-.404.538-.762zM2.018 7.056H8.92v-5.28h1.828v5.28h6.903v2.64H2.018v-2.64zm11.878 11.167v-3.959c0-.112-.091-.203-.203-.203h-1.218c-.112 0-.203.091-.203.203v3.96H7.398v-3.96c0-.112-.09-.203-.203-.203H5.977c-.112 0-.203.091-.203.203v3.96H1.987l1.145-6.6h13.404l1.144 6.6h-3.784z" transform="translate(-26 -742) translate(0 727) translate(26 15)"/>
                    </g>
                </g>
            </g>
        </g>
    </g>
</svg>
