<svg xmlns="http://www.w3.org/2000/svg" width="28" height="28" viewBox="0 0 28 28">
    <defs>
        <linearGradient id="n2pn24t2da" x1="50%" x2="50%" y1="0%" y2="100%">
            <stop offset="0%" stop-color="#EFCEA6"/>
            <stop offset="100%" stop-color="#DAB591"/>
        </linearGradient>
    </defs>
    <g fill="none" fill-rule="evenodd">
        <g fill="url(#n2pn24t2da)" transform="translate(-268 -106)">
            <g>
                <g>
                    <path d="M14 0C6.3 0 0 6.3 0 14s6.3 14 14 14 14-6.3 14-14S21.7 0 14 0zm6.475 21.7c-1.225 1.05-5.6 0-9.975-4.375-4.2-4.2-5.25-8.75-4.2-9.8.875-1.05 2.275-2.8 4.025-.525 1.75 2.275.875 2.8-.175 3.85-.7.875.875 2.625 2.275 4.2 1.75 1.75 3.5 3.15 4.725 2.8.875-1.05 1.75-2.1 3.85-.175 2.275 1.75.35 3.15-.525 4.025z" transform="translate(24 96) translate(234 10) translate(10)"/>
                </g>
            </g>
        </g>
    </g>
</svg>
