<svg xmlns="http://www.w3.org/2000/svg" width="16" height="16" viewBox="0 0 16 16">
    <g fill="none" fill-rule="evenodd">
        <g fill="#606070">
            <g>
                <g>
                    <g>
                        <path d="M8 0C3.6 0 0 3.53 0 7.843c0 4.314 3.6 7.843 8 7.843s8-3.53 8-7.843C16 3.53 12.4 0 8 0zm3.7 12.157c-.7.588-3.2 0-5.7-2.451-2.4-2.353-3-4.902-2.4-5.49.5-.589 1.3-1.569 2.3-.294 1 1.274.5 1.568-.1 2.156-.4.49.5 1.471 1.3 2.353 1 .98 2 1.765 2.7 1.569.5-.588 1-1.176 2.2-.098 1.3.98.2 1.765-.3 2.255z" transform="translate(-38 -441) translate(12 324) translate(0 100) translate(26 17)"/>
                    </g>
                </g>
            </g>
        </g>
    </g>
</svg>
