<svg xmlns="http://www.w3.org/2000/svg" width="18" height="18" viewBox="0 0 18 18">
    <defs>
        <linearGradient id="fasasco7ba" x1="50%" x2="50%" y1="0%" y2="100%">
            <stop offset="0%" stop-color="#EFCEA6"/>
            <stop offset="100%" stop-color="#DAB591"/>
        </linearGradient>
    </defs>
    <g fill="none" fill-rule="evenodd">
        <g fill="url(#fasasco7ba)" transform="translate(-14 -62)">
            <g>
                <g>
                    <path d="M17.288 8.473h-3.474c-.19 0-.371.076-.505.212-.133.135-.207.316-.207.506v.224c0 .395.32.715.714.715h3.472c.393 0 .712-.32.712-.715V9.19c0-.19-.075-.371-.208-.506-.133-.136-.314-.212-.504-.212zM9.232 2.328c-1.081.86-3.342 2.063-4.967 3.223h-.002c-.018.012-.036.076-.056.086-.192.11-.279.406-1.323.406H.847c-.524 0-.847.246-.847.798v4.907c0 .552.296.824.847.824h2.045c1.038.002 1.123.299 1.315.406.018.01.036.074.054.087h.002c1.577 1.16 3.852 2.456 4.969 3.28.337.249 1.454.684 1.454-.848V3.115c0-1.535-1.127-1.045-1.454-.787zm3.206 3.384c.186.325.55.407.817.182l2.853-2.406c.269-.224.333-.67.15-.996l-.105-.184c-.184-.325-.55-.405-.817-.181l-2.853 2.405c-.267.226-.333.67-.15.997l.105.183zm.815 7.006c-.266-.224-.631-.141-.815.181l-.105.184c-.183.324-.117.77.15.996l2.853 2.408c.266.224.631.143.815-.182l.105-.183c.183-.325.117-.77-.15-.997l-2.853-2.407z" transform="translate(14 62)"/>
                </g>
            </g>
        </g>
    </g>
</svg>
