<svg xmlns="http://www.w3.org/2000/svg" width="16" height="16" viewBox="0 0 16 16">
    <g fill="none" fill-rule="evenodd">
        <g fill="#606070">
            <g>
                <g>
                    <g>
                        <path d="M13.768 13.181c-.088.06-.178.092-.257.092H3.595c-.267 0-.732-.22-.732-.905s.465-.905.732-.905h9.916c.1 0 .219.053.328.146V1.43c0-.376.173-.826.73-.826.559 0 .783.45.785.826v11.744c0 1.383-.984 2.513-2.214 2.513H2.813C1.83 15.562.723 14.681.6 13.551V2.514C.601.938 1.566 0 3.181 0h7.746c1.721 0 1.98 1.019 1.967 2.514v7.769c0 .251 0 .376-.246.376H3.181c-.826 0-1.118.522-1.118 1.008v1.226c0 .658.468 1.212 1.118 1.212h9.467c.486 0 .947-.519 1.12-.924zM3.419 1.552c-.556 0-1.228.382-1.228.979v6.992c0-.252.379-.29.87-.29h8.324V2.75c0-.576-.503-1.197-.939-1.197H3.42z" transform="translate(-39 -318) translate(13 301) translate(26 17)"/>
                    </g>
                </g>
            </g>
        </g>
    </g>
</svg>
