<svg xmlns="http://www.w3.org/2000/svg" width="28" height="28" viewBox="0 0 28 28">
    <defs>
        <linearGradient id="zi7y3x3oya" x1=".255%" x2="81.307%" y1="0%" y2="88.27%">
            <stop offset="0%" stop-color="#C91FEC"/>
            <stop offset="100%" stop-color="#1772D1"/>
        </linearGradient>
    </defs>
    <g fill="none" fill-rule="evenodd">
        <g fill="url(#zi7y3x3oya)" transform="translate(-48 -190)">
            <g>
                <g>
                    <path d="M27.057 26.813l-.279.28c-.28.279-.978.279-1.257 0l-2.164-1.956c-.768.489-1.676.768-2.654.768-2.723 0-4.957-2.234-4.957-4.957 0-2.724 2.234-4.958 4.957-4.958s4.958 2.234 4.958 4.958c0 .977-.28 1.885-.768 2.653l2.164 1.885c.28.42.28.978 0 1.327zm-6.354-8.658c-1.536 0-2.793 1.256-2.793 2.793 0 1.536 1.257 2.793 2.793 2.793 1.536 0 2.793-1.257 2.793-2.793 0-1.537-1.257-2.793-2.793-2.793zm3.003-3.91V7.051H7.017v15.362h6.424c0 1.047.908 1.955 1.187 2.584H6.18c-.978 0-1.746-.838-1.746-1.816V6.424c0-.978.768-1.816 1.746-1.816h18.224c.978 0 1.746.838 1.746 1.816V16.2c-.49-.699-1.537-1.606-2.444-1.956zm-12.29-3.841h7.332c.629 0 1.117.489 1.117 1.117 0 .629-.488 1.117-1.117 1.117h-7.332c-.628 0-1.117-.488-1.117-1.117 0-.628.559-1.117 1.117-1.117zm0 4.399h1.467c.628 0 1.117.489 1.117 1.117 0 .629-.489 1.117-1.117 1.117h-1.467c-.628 0-1.117-.488-1.117-1.117.07-.628.559-1.117 1.117-1.117zM2.55 3.212v19.76c-.838 0-2.514-.07-2.514-1.605v-19.9C.035.627.663 0 1.5 0h19.9c1.257 0 1.537 1.397 1.537 2.234l-19.691.28c-.42 0-.698.349-.698.698z" transform="translate(14 178) translate(34 12)"/>
                </g>
            </g>
        </g>
    </g>
</svg>
