<svg xmlns="http://www.w3.org/2000/svg" width="28" height="28" viewBox="0 0 28 28">
    <defs>
        <linearGradient id="9zvkxa2vka" x1="1.933%" x2="80.251%" y1="0%" y2="88.27%">
            <stop offset="0%" stop-color="#C91FEC"/>
            <stop offset="100%" stop-color="#1772D1"/>
        </linearGradient>
    </defs>
    <g fill="none" fill-rule="evenodd">
        <g fill="url(#9zvkxa2vka)" transform="translate(-299 -190)">
            <g>
                <g>
                    <path d="M26.668 13.992c-.925.009-5.458-2.61-5.601-2.746-.345-.328-.214-.737.137-.793.351-.056 2.324-.29 2.324-.29-1.212-3.24-3.918-5.829-7.469-6.668-5.667-1.34-11.528 2.46-12.823 8.258-.012.05-.09.64-.56.622-.317-.013-1.358-.427-1.735-.603-.43-.202-.545-.15-.415-.798C2 3.602 9.549-1.366 16.795.334c6.013 1.41 10.19 6.629 10.649 12.574.077.796-.329 1.08-.776 1.084zm-9.464 1.615c.595 0 1.078.482 1.078 1.078 0 .595-.483 1.078-1.078 1.078h-2.156v1.347c0 .744-.603 1.347-1.347 1.347s-1.347-.603-1.347-1.347v-1.347h-2.155c-.596 0-1.078-.483-1.078-1.078 0-.596.482-1.078 1.078-1.078h2.155V14.53h-2.155c-.596 0-1.078-.483-1.078-1.078 0-.596.482-1.078 1.078-1.078h2.155V12.3L9.962 9.91c-.424-.425-.424-1.112 0-1.536.424-.424 1.111-.424 1.535 0l2.186 2.186 2.195-2.195c.423-.423 1.11-.423 1.534 0 .424.424.424 1.112 0 1.535l-2.363 2.364v.11h2.155c.595 0 1.078.482 1.078 1.078 0 .595-.483 1.078-1.078 1.078h-2.155v1.077h2.155zM6.392 17.128c.472.302.358.91-.161.964-.52.054-2.147.197-2.147.197 1.29 3.023 3.904 5.406 7.284 6.205 5.668 1.338 11.464-2.277 12.76-8.075.026-.12.025-.1.071-.356.047-.255.122-.644.62-.471.5.173 1.717.53 2.096.632.379.101.336.25.289.603-.015.107-.037.205-.06.309-1.696 7.539-9.08 12.242-16.492 10.502C4.646 26.23.47 21.023.004 15.088c-.063-1.02.657-1.229 1.394-.84.58.307 4.52 2.578 4.993 2.88z" transform="translate(14 178) translate(285 12)"/>
                </g>
            </g>
        </g>
    </g>
</svg>
