<svg xmlns="http://www.w3.org/2000/svg" width="16" height="16" viewBox="0 0 16 16">
    <g fill="none" fill-rule="evenodd">
        <g fill="#FFF">
            <g>
                <g>
                    <path d="M14 16H2c-1.105 0-2-.895-2-2V3.333c0-1.104.895-2 2-2h2V.667C4 .299 4.299 0 4.667 0c.368 0 .666.299.666.667v.666h5.334V.667c0-.368.298-.667.666-.667.368 0 .667.299.667.667v.666h2c1.105 0 2 .896 2 2V14c0 1.105-.895 2-2 2zM1.333 6.033V14c0 .368.299.667.667.667h12c.368 0 .667-.299.667-.667V6.033H1.333zm0-1.333h13.334V3.333c0-.368-.299-.666-.667-.666h-2v.666c0 .368-.299.667-.667.667-.368 0-.666-.299-.666-.667v-.666H5.333v.666c0 .368-.298.667-.666.667C4.299 4 4 3.7 4 3.333v-.666H2c-.368 0-.667.298-.667.666V4.7zm5.8 7.927c-.168 0-.33-.065-.453-.18l-1.807-1.7c-.26-.256-.268-.673-.017-.938.25-.266.667-.281.937-.036l1.334 1.26L10.2 8c.266-.225.66-.207.905.041.244.248.257.643.028.906l-3.526 3.48c-.125.127-.296.199-.474.2z" transform="translate(-339 -15) translate(339 15)"/>
                </g>
            </g>
        </g>
    </g>
</svg>
