<svg xmlns="http://www.w3.org/2000/svg" width="28" height="28" viewBox="0 0 28 28">
    <defs>
        <linearGradient id="gmftq1atya" x1="0%" x2="81.467%" y1="0%" y2="88.27%">
            <stop offset="0%" stop-color="#C91FEC"/>
            <stop offset="100%" stop-color="#1772D1"/>
        </linearGradient>
    </defs>
    <g fill="none" fill-rule="evenodd">
        <g fill="url(#gmftq1atya)" transform="translate(-132 -190)">
            <g>
                <g>
                    <path d="M24.508 0c.773 0 1.394.622 1.394 1.395l-.001 13.31h.706c.772 0 1.393.623 1.393 1.396l-.002.063c.005.41-.166.818-.502 1.097L14.932 27.663c-.113.099-.24.176-.376.232-.012.003-.024.008-.036.013-.027.011-.055.02-.083.03l-.076.02-.062.014c-.023.005-.045.009-.068.012l-.076.01h-.003l-.135.006c-.046 0-.092-.002-.138-.006l.138.006c-.073 0-.146-.005-.217-.016-.022-.004-.044-.007-.065-.012-.023-.004-.045-.01-.068-.015-.022-.006-.045-.012-.067-.02-.028-.007-.057-.017-.085-.028l-.04-.017c-.138-.055-.267-.134-.38-.236L.536 17.261c-.19-.159-.328-.36-.41-.579C.044 16.505 0 16.31 0 16.101c0-.773.621-1.395 1.393-1.395l.738-.001V1.395C2.132.622 2.754 0 3.526 0h20.983zm-1.393 2.789H4.918v13.312c0 .34-.12.653-.322.894l9.421 7.798 9.421-7.797c-.202-.242-.323-.554-.323-.895v-.042V2.79zM12.103 6.05L14.01 7.96 15.93 6.05c.538-.537 1.427-.537 1.964 0 .538.538.538 1.429 0 1.967L16.067 9.83h2.23c.773 0 1.394.623 1.394 1.396 0 .773-.621 1.395-1.394 1.395l-2.887-.001v1.412h2.887c.773 0 1.394.622 1.394 1.396 0 .773-.621 1.395-1.394 1.395l-2.887-.001v1.379c0 .773-.621 1.395-1.393 1.395s-1.393-.622-1.393-1.395l-.001-1.379H9.736c-.772 0-1.393-.621-1.393-1.394 0-.774.621-1.395 1.393-1.395l2.887-.001v-1.412H9.736c-.772 0-1.393-.621-1.393-1.394 0-.773.621-1.395 1.393-1.395l2.201-.001-1.798-1.814c-.537-.538-.537-1.429 0-1.967.537-.537 1.427-.537 1.964 0z" transform="translate(14 178) translate(118 12)"/>
                </g>
            </g>
        </g>
    </g>
</svg>
