<svg xmlns="http://www.w3.org/2000/svg" width="20" height="20" viewBox="0 0 20 20">
    <g fill="none" fill-rule="evenodd">
        <g fill="#333441">
            <g>
                <g>
                    <path d="M10 1.25c-4.824 0-8.75 3.925-8.75 8.75s3.925 8.75 8.75 8.75c4.824 0 8.75-3.925 8.75-8.75S14.825 1.25 10 1.25zm3.57 11.445c.243.245.242.64-.002.884-.122.121-.281.182-.441.182-.16 0-.32-.061-.443-.183l-2.687-2.696L7.3 13.549c-.122.12-.281.181-.44.181-.161 0-.322-.062-.444-.186-.243-.245-.24-.64.005-.883l2.693-2.664-2.683-2.692c-.244-.244-.243-.64.001-.884s.64-.243.884.001l2.687 2.695L12.7 6.45c.245-.243.641-.24.884.005.243.246.24.641-.005.884l-2.693 2.663 2.683 2.693z" transform="translate(-294 -237) translate(31 221) translate(263 16)"/>
                </g>
            </g>
        </g>
    </g>
</svg>
