<svg xmlns="http://www.w3.org/2000/svg" width="16" height="16" viewBox="0 0 16 16">
    <g fill="none" fill-rule="evenodd">
        <g fill="#FFF">
            <g>
                <g>
                    <g>
                        <path d="M14.134 1.396c-.133-.2-.333-.467-.6-.467H.606c-.2 0-.467.267-.533.467-.134.2-.067.533.066.733l4.532 4.998v5.531c0 .2.133.467.4.533l3.398 1.533c.067.067.2.067.267.067.133 0 .267 0 .333-.067.2-.133.333-.267.333-.533l.2-7.13 4.399-4.999c.2-.133.2-.4.133-.666zM8.136 13.258l-2.132-1V7.593h2.332l-.2 5.665zm.533-7.064c-.066 0-.066.066-.133.066H5.671l-3.6-3.998h10.064L8.669 6.194zM16 10.792c0-.266-.267-.533-.533-.533h-4.265c-.267 0-.533.267-.533.533v.267c0 .266.266.533.533.533h4.265c.266 0 .533-.267.533-.533v-.267zm0-2.666c0-.266-.267-.533-.533-.533h-4.265c-.267 0-.533.267-.533.533v.267c0 .267.266.533.533.533h4.265c.266 0 .533-.266.533-.533v-.267zm0 5.332c0-.267-.267-.533-.533-.533h-4.265c-.267 0-.533.266-.533.533v.266c0 .267.266.533.533.533h4.265c.266 0 .533-.266.533-.533v-.266z" transform="translate(-339 -15) translate(339 15)"/>
                    </g>
                </g>
            </g>
        </g>
    </g>
</svg>
