<svg xmlns="http://www.w3.org/2000/svg" width="16" height="16" viewBox="0 0 16 16">
    <g fill="none" fill-rule="evenodd">
        <g fill="#606070">
            <g>
                <g>
                    <g>
                        <path d="M11.257 13.445H4.663l-1.725 1.693c-.32.314-.821.344-1.176.072-.297-.229-.353-.655-.125-.952.02-.025.04-.048.063-.07l.757-.743H1c-.552 0-1-.447-1-1V1c0-.552.448-1 1-1h14c.552 0 1 .448 1 1v11.445c0 .553-.448 1-1 1h-1.458l.735.721c.27.265.274.698.01.968-.028.028-.057.053-.088.076-.38.274-.902.235-1.237-.093l-1.705-1.672zM1.63 2.57v8.392c0 .552.447 1 1 1h10.75c.552 0 1-.448 1-1V2.569c0-.553-.448-1-1-1H2.629c-.553 0-1 .447-1 1zm2.257.792h1.371v6.723H3.886V3.361zm6.857 3.362h1.371v3.361h-1.371V6.723zM7.314 5.042h1.372v5.042H7.314V5.042z" transform="translate(-39 -368) translate(13 301) translate(0 50) translate(26 17)"/>
                    </g>
                </g>
            </g>
        </g>
    </g>
</svg>
