<svg xmlns="http://www.w3.org/2000/svg" width="16" height="16" viewBox="0 0 16 16">
    <g fill="none" fill-rule="evenodd">
        <g fill="#606070">
            <g>
                <g>
                    <g>
                        <path d="M8 0C3.582 0 0 3.512 0 7.843c0 4.332 3.582 7.843 8 7.843s8-3.511 8-7.843C16 3.513 12.418 0 8 0zm.196 2.771c.719 0 1.3.572 1.3 1.275 0 .704-.581 1.275-1.3 1.275-.717 0-1.3-.57-1.3-1.275 0-.703.583-1.275 1.3-1.275zm2.311 9.624H6.154v-.559l.545-.197c.305-.11.508-.396.508-.714V7.91c0-.319-.203-.604-.508-.714l-.545-.198v-.57h3.3v4.497c0 .318.202.604.508.714l.545.197v.56z" transform="translate(-38 -491) translate(12 324) translate(0 150) translate(26 17)"/>
                    </g>
                </g>
            </g>
        </g>
    </g>
</svg>
