<svg xmlns="http://www.w3.org/2000/svg" width="16" height="16" viewBox="0 0 16 16">
    <defs>
        <linearGradient id="p0gfh8hb4a" x1="0%" x2="81.467%" y1="0%" y2="88.27%">
            <stop offset="0%" stop-color="#C91FEC"/>
            <stop offset="100%" stop-color="#1772D1"/>
        </linearGradient>
    </defs>
    <g fill="none" fill-rule="evenodd">
        <g fill="url(#p0gfh8hb4a)" transform="translate(-17 -149)">
            <g>
                <path d="M8 0C3.582 0 0 3.583 0 8c0 4.418 3.582 8 8 8s8-3.582 8-8c0-4.417-3.582-8-8-8zm.196 2.827c.719 0 1.3.583 1.3 1.3 0 .718-.581 1.3-1.3 1.3-.717 0-1.3-.582-1.3-1.3 0-.717.583-1.3 1.3-1.3zm2.311 9.816H6.154v-.57l.545-.202c.305-.112.508-.404.508-.728V8.068c0-.325-.203-.616-.508-.728l-.545-.202v-.582h3.3v4.587c0 .324.202.616.508.728l.545.202v.57z" transform="translate(17 147) translate(0 2)"/>
            </g>
        </g>
    </g>
</svg>
