<svg xmlns="http://www.w3.org/2000/svg" width="16" height="16" viewBox="0 0 16 16">
    <g fill="none" fill-rule="evenodd">
        <g fill="#606070">
            <g>
                <g>
                    <g>
                        <path d="M14.667.49C15.403.49 16 1.075 16 1.797v9.15c0 .723-.597 1.308-1.333 1.308H14v1.307c0 .722-.597 1.307-1.333 1.307H1.333C.597 14.87 0 14.284 0 13.562v-9.15c0-.722.597-1.307 1.333-1.307H2V1.797C2 1.075 2.597.49 3.333.49h11.334zM8 5.065H6v1.308H3.333v3.921h1.334v-.653H6v2.614h2V9.641h1.333v.653h1.334V6.373H8V5.065zm6.667-3.921H3.333c-.368 0-.666.292-.666.653v1.308h10c.736 0 1.333.585 1.333 1.307v7.19h.667c.368 0 .666-.293.666-.654v-9.15c0-.362-.298-.654-.666-.654zM6 7.026v1.96H4.667v-1.96H6zm3.333 0v1.96H8v-1.96h1.333z" transform="translate(-38 -641) translate(12 324) translate(0 300) translate(26 17)"/>
                    </g>
                </g>
            </g>
        </g>
    </g>
</svg>
