<svg xmlns="http://www.w3.org/2000/svg" width="20" height="20" viewBox="0 0 20 20">
    <defs>
        <linearGradient id="cf5llvvpha" x1="4.253%" x2="78.791%" y1="0%" y2="88.27%">
            <stop offset="0%" stop-color="#C91FEC"/>
            <stop offset="100%" stop-color="#1772D1"/>
        </linearGradient>
    </defs>
    <g fill="none" fill-rule="evenodd">
        <g fill="url(#cf5llvvpha)" transform="translate(-41 -237)">
            <g>
                <g>
                    <g>
                        <path d="M7.219 6.055c0-1.751 1.419-3.171 3.17-3.175 1.751.004 3.17 1.424 3.17 3.175v2.532H7.22V6.055zm3.814 9.869c0 .45-.365.815-.816.815-.45 0-.815-.365-.815-.815v-3.261c0-.45.365-.815.815-.815.45 0 .816.365.816.815v3.26zm6.528-7.337h-2.37V6.055c-.003-2.652-2.15-4.801-4.802-4.805-2.647 0-4.8 2.155-4.8 4.805v2.532H2.874c-.899.004-1.625.734-1.624 1.633v8.148c0 .898.725 1.628 1.624 1.632H17.56c.898-.004 1.625-.734 1.624-1.632V10.22c.001-.899-.725-1.63-1.624-1.633z" transform="translate(31 221) translate(10 16)"/>
                    </g>
                </g>
            </g>
        </g>
    </g>
</svg>
