<svg xmlns="http://www.w3.org/2000/svg" width="16" height="16" viewBox="0 0 16 16">
    <g fill="none" fill-rule="evenodd">
        <g fill="#606070">
            <g>
                <g>
                    <g>
                        <path d="M13.6 3.493c1.325 0 2.4 1.096 2.4 2.447v1.535c0 .48-.207.936-.567 1.246-.289.249-.433.538-.433.869 0 .33.144.62.433.868.36.31.567.766.567 1.246v1.536c0 1.35-1.075 2.446-2.4 2.446H2.4c-1.325 0-2.4-1.095-2.4-2.446v-1.536c0-.48.207-.936.567-1.246C.856 10.21 1 9.92 1 9.59c0-.33-.144-.62-.433-.869C.207 8.411 0 7.956 0 7.475V5.94C0 4.59 1.075 3.493 2.4 3.493h11.2zM5.52 7.51c-.394 0-.714.322-.72.722v2.704c0 .405.322.734.72.734.394 0 .714-.323.72-.722V8.244c0-.405-.322-.734-.72-.734zm5.2-7.362c1.29-.479 2.732.245 3.222 1.616l.244.685c.018.05.01.105-.019.149-.03.044-.079.07-.131.07h-9.2c-.078 0-.144-.057-.158-.135-.013-.078.03-.155.103-.182L10.72.148z" transform="translate(-38 -391) translate(12 324) translate(0 50) translate(26 17)"/>
                    </g>
                </g>
            </g>
        </g>
    </g>
</svg>
