<svg xmlns="http://www.w3.org/2000/svg" width="16" height="16" viewBox="0 0 16 16">
    <g fill="none" fill-rule="evenodd">
        <g fill="#606070">
            <g>
                <g>
                    <g>
                        <path d="M11.34 4.18c-.157-.023-.293-.124-.362-.27L9.57.997C9.274.387 8.664 0 7.996 0S6.718.387 6.423.997L5.015 3.91c-.071.145-.207.245-.364.268l-3.15.468c-.66.098-1.209.57-1.415 1.218-.206.647-.034 1.358.444 1.833l2.286 2.265c.114.112.166.275.14.435l-.547 3.202c-.113.67.157 1.347.697 1.746.54.4 1.256.451 1.846.134l2.82-1.51c.14-.075.308-.075.449 0l2.816 1.51c.59.32 1.308.267 1.848-.136.541-.399.812-1.077.697-1.748l-.537-3.198c-.027-.16.025-.323.139-.435l2.286-2.265c.478-.475.65-1.186.444-1.833-.206-.647-.755-1.12-1.416-1.218L11.34 4.18z" transform="translate(-38 -341) translate(12 324) translate(26 17)"/>
                    </g>
                </g>
            </g>
        </g>
    </g>
</svg>
