<svg xmlns="http://www.w3.org/2000/svg" width="16" height="16" viewBox="0 0 16 16">
    <g fill="none" fill-rule="evenodd">
        <g fill="#606070">
            <g>
                <g>
                    <g>
                        <path d="M11.264.49c.44 0 .8.353.8.785v.615h1.112C14.732 1.89 16 3.133 16 4.66v7.863c0 1.525-1.268 2.768-2.824 2.768H2.824C1.268 15.29 0 14.047 0 12.522V4.659C0 3.133 1.268 1.89 2.828 1.89h1.156v-.615c0-.432.36-.785.8-.785.44 0 .8.353.8.785v.615h4.88v-.615c0-.432.36-.785.8-.785zM3.98 3.46H2.824c-.676 0-1.224.537-1.224 1.2v7.863c0 .662.548 1.203 1.224 1.2h10.352c.676 0 1.224-.538 1.224-1.2V4.659c0-.318-.129-.624-.359-.849-.229-.225-.54-.351-.865-.351h-1.112v.835c0 .431-.36.784-.8.784-.44 0-.8-.353-.8-.784V3.46H5.58v.835c0 .431-.36.784-.8.784-.44 0-.8-.353-.8-.784V3.46zM5.728 5.4c1.466.002 2.654 1.167 2.656 2.604 0 .616-.225 1.213-.632 1.682.868.616 1.432 1.612 1.428 2.738 0 .43-.36.784-.8.784-.44 0-.8-.353-.8-.784 0-1-.832-1.816-1.852-1.816s-1.852.816-1.852 1.816c0 .43-.36.784-.8.784-.44 0-.8-.353-.8-.784 0-1.085.532-2.103 1.428-2.738-.392-.455-.632-1.039-.632-1.682.002-1.437 1.19-2.602 2.656-2.604zm6.58 4.482c.44 0 .8.353.8.785 0 .431-.36.784-.8.784h-2.12c-.44 0-.8-.353-.8-.784 0-.432.36-.785.8-.785zm.588-2.31c.286 0 .55.15.693.393.143.242.143.541 0 .784s-.407.392-.693.392h-3.3c-.44 0-.8-.353-.8-.784 0-.432.36-.784.8-.784zM5.732 6.97c-.584 0-1.056.462-1.056 1.035 0 .572.472 1.035 1.056 1.035.584 0 1.056-.463 1.056-1.035 0-.573-.472-1.035-1.056-1.035z" transform="translate(-39 -418) translate(13 301) translate(0 100) translate(26 17)"/>
                    </g>
                </g>
            </g>
        </g>
    </g>
</svg>
