<svg xmlns="http://www.w3.org/2000/svg" width="16" height="16" viewBox="0 0 16 16">
    <g fill="none" fill-rule="evenodd">
        <g fill="#606070">
            <g>
                <g>
                    <g>
                        <path d="M13.858.98c1.187.003 2.14 1.088 2.142 2.418v8.89c-.002 1.33-.955 2.415-2.143 2.418H2.142C.955 14.703.002 13.618 0 12.288v-8.89C.002 2.068.955.983 2.143.98zm.642 4.902h-13v6.494c0 .231.088.452.245.616.156.163.369.255.59.255h11.33c.221 0 .434-.092.59-.255.157-.164.245-.385.245-.616V5.882zm-.835-3.333H2.335c-.221 0-.434.105-.59.293-.157.188-.245.442-.245.707v.96h13v-.96c0-.265-.088-.52-.245-.707-.156-.188-.369-.293-.59-.293zm-3.23 7.255c.432 0 .833.188 1.104.5l.086.109.064.1h.92c.35 0 .646.232.734.548l.02.097.007.101c0 .378-.286.69-.657.739l-.103.007-.968-.001-.065.093c-.212.27-.518.457-.86.524l-.148.022-.135.006c-.402 0-.779-.164-1.047-.443l-.096-.11-.065-.092h-5.84c-.35 0-.644-.231-.733-.547l-.02-.097-.007-.101c0-.378.286-.69.658-.739l.103-.007h5.792l.065-.1c.214-.302.54-.51.908-.582l.14-.02.142-.007zM6.81 6.373c.402 0 .779.164 1.047.442l.095.11.065.091h4.596c.35 0 .645.232.734.548l.02.097.007.101c0 .378-.286.69-.658.74l-.103.006H8.065l-.063.101c-.214.303-.54.514-.909.586l-.14.02-.143.008c-.434 0-.837-.19-1.107-.505l-.086-.109-.065-.101H3.387c-.35 0-.645-.232-.734-.547l-.02-.097-.007-.102c0-.377.286-.69.658-.739l.103-.006H5.6l.066-.093c.212-.27.518-.457.86-.524l.148-.021.135-.006z" transform="translate(-39 -468) translate(13 301) translate(0 150) translate(26 17)"/>
                    </g>
                </g>
            </g>
        </g>
    </g>
</svg>
