<svg xmlns="http://www.w3.org/2000/svg" width="16" height="14" viewBox="0 0 16 14">
    <g fill="none" fill-rule="evenodd">
        <g fill="#8F8F8F">
            <g>
                <g>
                    <g>
                        <g>
                            <path d="M2.104 12.341c-.61 0-1.104-.508-1.104-1.134 0-.626.495-1.134 1.105-1.134s1.105.508 1.105 1.134c0 .626-.495 1.134-1.105 1.134h-.001zm0-4.536C1.494 7.805 1 7.297 1 6.671c0-.626.495-1.134 1.105-1.134s1.105.508 1.105 1.134c0 .626-.495 1.134-1.105 1.134h-.001zm0-4.536C1.494 3.269 1 2.761 1 2.135 1 1.508 1.495 1 2.105 1s1.105.508 1.105 1.135c0 .626-.495 1.134-1.105 1.134h-.001zM15 2.089c0 .36-.245.652-.548.652H5.857c-.303 0-.549-.292-.549-.653 0-.36.246-.652.549-.652h8.595c.303 0 .548.292.548.652v.001zm0 4.568c0 .36-.245.653-.548.653H5.857c-.303 0-.549-.292-.549-.653 0-.36.246-.653.549-.653h8.595c.303 0 .548.293.548.653zm0 4.569c0 .36-.245.652-.548.652H5.857c-.303 0-.549-.292-.549-.652 0-.36.246-.653.549-.653h8.595c.303 0 .548.292.548.653z" transform="translate(-164 -228) translate(0 104) translate(0 113) translate(164 9) translate(0 2)"/>
                        </g>
                    </g>
                </g>
            </g>
        </g>
    </g>
</svg>
