<svg xmlns="http://www.w3.org/2000/svg" width="16" height="16" viewBox="0 0 16 16">
    <g fill="none" fill-rule="evenodd">
        <g fill="#606070">
            <g>
                <g>
                    <g>
                        <path d="M11.82 0c1.408 0 2.528 1.098 2.528 2.478v.471c0 .408-.352.753-.768.753-.416 0-.768-.345-.768-.753v-.47c0-.534-.448-.973-.992-.973H3.628c-.544 0-.992.44-.992.972v10.73c0 .533.448.972.992.972h8.192c.544 0 .992-.439.992-.972V9.63c0-.407.352-.753.768-.753.416 0 .768.346.768.753v3.608c0 1.35-1.152 2.447-2.528 2.447H3.628c-1.408 0-2.528-1.098-2.528-2.478V2.478C1.1 1.098 2.22 0 3.628 0h8.192zm2.784 4.831c.288.283.288.753 0 1.067l-4.8 4.706c-.352.314-.768.47-1.184.47-.416 0-.832-.156-1.152-.47L4.716 7.906c-.288-.282-.288-.753 0-1.067.288-.282.768-.282 1.088 0l2.752 2.698c.032.032.096.032.16 0l4.8-4.706c.288-.282.768-.282 1.088 0z" transform="translate(-39 -518) translate(13 301) translate(0 200) translate(26 17)"/>
                    </g>
                </g>
            </g>
        </g>
    </g>
</svg>
