<svg xmlns="http://www.w3.org/2000/svg" width="22" height="22" viewBox="0 0 22 22">
    <g fill="none" fill-rule="evenodd">
        <g fill="#606070" fill-rule="nonzero">
            <g>
                <g>
                    <path d="M11.217 2.063c1.075-.003 1.858-.023 1.858 0h1.138v1.031c0 1.139.955 2.063 2.133 2.063 1.179 0 2.134-.924 2.134-2.063V2.063h1.778c.59 0 1.067.462 1.067 1.031v17.875c0 .57-.478 1.031-1.067 1.031H1.767C1.177 22 .7 21.538.7 20.969V3.094c0-.57.477-1.031 1.067-1.031h1.778v1.031c0 1.139.955 2.063 2.133 2.063 1.18 0 2.134-.924 2.134-2.063V2.063H8.95c0 .01.884 0 2.062 0zm4.418 14.958H6.39c-.426 0-.77.346-.77.771 0 .425.344.77.77.77h9.245c.426 0 .77-.345.77-.77 0-.425-.344-.77-.77-.77zm0-3.982H6.39c-.426 0-.77.345-.77.77 0 .426.344.771.77.771h9.245c.426 0 .77-.345.77-.77 0-.426-.344-.77-.77-.77zm0-3.982H6.39c-.426 0-.77.345-.77.77 0 .426.344.771.77.771h9.245c.426 0 .77-.345.77-.77 0-.426-.344-.771-.77-.771zM16.346 0c.59 0 1.067.462 1.067 1.032v2.062c0 .57-.477 1.031-1.067 1.031-.589 0-1.066-.462-1.066-1.031V1.032c0-.57.477-1.032 1.066-1.032zM5.678 0c.59 0 1.067.462 1.067 1.032v2.062c0 .57-.477 1.031-1.067 1.031s-1.067-.462-1.067-1.031V1.032C4.611.462 5.09 0 5.678 0z" transform="translate(-246 -1532) translate(0 1517) translate(246 15)"/>
                </g>
            </g>
        </g>
    </g>
</svg>
