<svg xmlns="http://www.w3.org/2000/svg" width="21" height="21" viewBox="0 0 21 21">
    <g fill="none" fill-rule="evenodd">
        <g fill="#FFF">
            <g>
                <path d="M21 8.176h-6.994l2.827-2.827c-2.126-2.623-5.648-3.665-8.859-2.623-3.211 1.043-5.448 3.955-5.628 7.327-.18 3.37 1.734 6.505 4.816 7.883 3.082 1.379 6.695.717 9.088-1.665l1.65 1.65c-3.06 3.05-7.674 3.913-11.628 2.176C2.318 18.36-.168 14.377.01 10.062c.177-4.315 2.98-8.08 7.063-9.489 4.083-1.407 8.611-.169 11.41 3.12L21 1.182v6.995z" transform="translate(-318 -85) translate(37 77) translate(281 8)"/>
            </g>
        </g>
    </g>
</svg>
