<svg xmlns="http://www.w3.org/2000/svg" width="18" height="18" viewBox="0 0 18 18">
    <g fill="none" fill-rule="evenodd">
        <g fill="#FFF">
            <g>
                <path d="M4.197 3.41c.281.833.214 1.78-.264 2.603-.481.83-1.28 1.363-2.154 1.533-.09.456-.136.928-.136 1.41 0 .457.042.905.123 1.339.878.166 1.683.7 2.167 1.535.488.841.548 1.81.245 2.656.698.602 1.51 1.077 2.4 1.385.584-.685 1.456-1.12 2.43-1.12.972 0 1.842.433 2.427 1.116.882-.308 1.687-.778 2.38-1.375-.305-.847-.247-1.819.243-2.662.485-.838 1.295-1.372 2.177-1.537.08-.434.122-.88.122-1.337 0-.482-.047-.953-.136-1.409-.877-.167-1.68-.701-2.163-1.534-.48-.825-.545-1.775-.262-2.609-.688-.589-1.487-1.053-2.361-1.358-.585.682-1.455 1.115-2.427 1.115-.974 0-1.846-.434-2.43-1.12-.882.306-1.688.775-2.38 1.37h-.001zM3.124 2.173C3.979 1.438 4.967.869 6.037.497 6.678.275 7.391.468 7.831.983c.292.344.717.544 1.177.544.46 0 .883-.2 1.176-.541.44-.515 1.154-.707 1.794-.483 1.061.37 2.04.935 2.89 1.662.507.435.699 1.132.484 1.763-.141.417-.1.875.128 1.267.23.397.612.663 1.051.747.659.126 1.174.637 1.303 1.293.11.563.166 1.14.166 1.721 0 .552-.05 1.098-.15 1.633-.123.665-.645 1.186-1.312 1.31-.442.083-.827.35-1.058.748-.232.401-.271.87-.119 1.294.23.635.042 1.345-.47 1.787-.855.736-1.842 1.308-2.913 1.682-.64.223-1.354.031-1.794-.483-.293-.342-.716-.541-1.176-.541-.46 0-.885.2-1.177.543-.44.515-1.153.709-1.794.486-1.08-.374-2.075-.95-2.936-1.695-.51-.44-.697-1.148-.47-1.782.15-.423.112-.89-.12-1.29-.23-.398-.614-.664-1.053-.748-.666-.126-1.185-.646-1.308-1.308C.05 10.055 0 9.509 0 8.956c0-.583.056-1.16.167-1.724.128-.653.641-1.163 1.297-1.291.437-.085.818-.35 1.047-.746.227-.391.27-.847.129-1.264-.213-.63-.022-1.325.484-1.758zM9 12.287c1.845 0 3.34-1.489 3.34-3.325S10.846 5.638 9 5.638c-1.845 0-3.34 1.488-3.34 3.324 0 1.836 1.495 3.325 3.34 3.325zm0-1.635c-.938 0-1.698-.757-1.698-1.69 0-.933.76-1.69 1.698-1.69s1.698.757 1.698 1.69c0 .933-.76 1.69-1.698 1.69z" transform="translate(-334 -24) translate(334 24)"/>
            </g>
        </g>
    </g>
</svg>
