<svg xmlns="http://www.w3.org/2000/svg" width="16" height="16" viewBox="0 0 16 16">
    <g fill="none" fill-rule="evenodd">
        <g fill="#606070">
            <g>
                <g>
                    <g>
                        <path d="M10.495 15.686c-2.484 0-4.498-1.975-4.498-4.412 0-2.436 2.014-4.411 4.498-4.411 2.484 0 4.497 1.975 4.497 4.411 0 2.437-2.013 4.412-4.497 4.412zm0-6.863c-1.38 0-2.499 1.098-2.499 2.452 0 1.353 1.119 2.45 2.499 2.45 1.38 0 2.498-1.097 2.498-2.45 0-1.354-1.118-2.452-2.498-2.452zm.5 3.922h-1v-.98h-1v-.98h1v-.981h1v.98h.999v.98h-1v.98zm1.998-7.537v1.29c-.15-.077-.295-.158-.452-.22.288-.317.452-.674.452-1.07zm-1.69.754c-.266-.039-.531-.08-.808-.08-1.162 0-2.237.359-3.124.962-.127.004-.246.019-.374.019C3.684 6.863 1 5.546 1 3.92v-.98C1 1.317 3.684 0 6.997 0c3.311 0 5.996 1.317 5.996 2.941v.98c0 .794-.648 1.512-1.69 2.041zM6.308 7.817c-.463.538-.814 1.161-1.035 1.849C2.808 9.3 1 8.19 1 6.863V5.208c0 1.51 2.325 2.477 5.309 2.609zm-1.247 2.832c-.025.208-.064.411-.064.625 0 .458.075.895.185 1.32C2.763 12.213 1 11.115 1 9.803V8.149c0 1.29 1.705 2.184 4.062 2.5zm.523 3.005c.407.806 1 1.5 1.743 2.016-.112.003-.218.016-.331.016C3.684 15.686 1 14.37 1 12.745V11.09c0 1.384 1.958 2.316 4.585 2.563z" transform="translate(-38 -591) translate(12 324) translate(0 250) translate(26 17)"/>
                    </g>
                </g>
            </g>
        </g>
    </g>
</svg>
