<svg xmlns="http://www.w3.org/2000/svg" width="42" height="42" viewBox="0 0 42 42">
    <defs>
        <linearGradient id="h7dracj6la" x1="0%" x2="81.467%" y1="19.75%" y2="73.154%">
            <stop offset="0%" stop-color="#C91FEC"/>
            <stop offset="100%" stop-color="#1772D1"/>
        </linearGradient>
    </defs>
    <g fill="none" fill-rule="evenodd">
        <g fill="url(#h7dracj6la)" transform="translate(-62 -456)">
            <g>
                <g>
                    <path d="M1.097 28.98l1.068-3.738C.755 23.09.002 20.573 0 18 0 10.28 6.746 4 15.037 4c6.068 0 11.474 3.37 13.823 8.496l.09.004c.03 0 .058-.005.087-.005.194 0 .383.02.575.028.224.01.449.012.67.032.22.02.434.056.65.085.212.029.427.052.636.09.24.045.471.107.706.163.177.042.357.077.53.127.275.078.54.173.807.267.125.044.255.082.378.13.311.12.612.258.91.4.073.034.149.063.22.1.35.172.688.362 1.018.564l.052.03c2.791 1.728 4.827 4.435 5.535 7.595l.007.023c.078.354.135.716.18 1.08.005.044.017.086.022.13.283 2.596-.333 5.21-1.743 7.408l.874 3.06c.155.543.004 1.128-.396 1.528-.4.4-.984.551-1.528.395l-3.216-.92c-2.521 1.478-5.453 2.1-8.357 1.774-.11-.013-.22-.032-.328-.048-.384-.048-.766-.113-1.144-.195-.102-.023-.2-.047-.302-.072-.912-.221-1.8-.535-2.648-.937l-.04-.017c-.882-.425-1.714-.948-2.48-1.558-.042-.033-.081-.069-.123-.103-.315-.258-.616-.529-.903-.814-.078-.078-.152-.156-.228-.235-.256-.267-.499-.546-.728-.835-.043-.05-.091-.097-.132-.15-3.953.877-8.164.205-11.574-1.836L3.02 30.903c-.543.157-1.13.006-1.53-.394-.4-.4-.55-.985-.393-1.529zm36.141.574c1.08-1.475 1.651-3.193 1.651-4.973 0-4.949-4.42-8.974-9.852-8.974-.35 0-.697.02-1.039.05-4.946.475-8.813 4.296-8.813 8.924.005 1.572.456 3.11 1.3 4.437.21.335.446.653.698.957l.056.07c.534.63 1.148 1.187 1.827 1.659.325.225.662.432 1.012.62l.034.018c.722.38 1.486.673 2.277.875l.196.046c.318.075.644.134.971.18.094.013.185.029.278.04 2.453.295 4.931-.29 6.992-1.653.38-.253.85-.326 1.288-.2l1.19.34-.306-1.07c-.132-.462-.043-.959.24-1.346zM15.038 7.11c-6.577 0-11.927 4.885-11.927 10.89 0 2.161.694 4.252 2.007 6.043.283.388.372.886.24 1.347l-.5 1.75 1.893-.54c.44-.126.91-.052 1.288.2 2.558 1.7 5.755 2.372 8.84 1.937-.527-1.323-.8-2.733-.805-4.157 0-5.55 4.04-10.226 9.517-11.639-2.031-3.547-6.058-5.83-10.554-5.83zm-4.149 8.296c.556 0 1.07-.296 1.347-.778.278-.482.278-1.075 0-1.556-.278-.481-.792-.778-1.348-.778-.86 0-1.556.698-1.556 1.557 0 .86.698 1.556 1.557 1.555m8.296 0c.556 0 1.07-.296 1.348-.778.277-.482.277-1.075 0-1.556-.279-.481-.793-.778-1.349-.778-.86 0-1.556.698-1.555 1.557 0 .86.697 1.556 1.556 1.555m5.704 5.186c-.556 0-1.07.297-1.347.778-.278.482-.278 1.075 0 1.556.278.482.792.778 1.348.778.86 0 1.556-.697 1.556-1.557s-.698-1.556-1.557-1.555m8.296 0c-.859 0-1.555.697-1.555 1.556 0 .86.697 1.556 1.556 1.556.556 0 1.07-.297 1.348-.779.278-.481.277-1.074 0-1.556-.279-.481-.793-.777-1.349-.777" transform="translate(46 442) translate(16 14)"/>
                </g>
            </g>
        </g>
    </g>
</svg>
