<svg xmlns="http://www.w3.org/2000/svg" width="42" height="42" viewBox="0 0 42 42">
    <defs>
        <linearGradient id="zdeng2pcda" x1="8.604%" x2="76.052%" y1="0%" y2="88.27%">
            <stop offset="0%" stop-color="#C91FEC"/>
            <stop offset="100%" stop-color="#1772D1"/>
        </linearGradient>
    </defs>
    <g fill="none" fill-rule="evenodd">
        <g fill="url(#zdeng2pcda)" transform="translate(-62 -370)">
            <g>
                <g>
                    <path d="M37.31 33.78c.14.48.218.98.218 1.5 0 3.894-4.082 6.72-9.707 6.72-2.684 0-5.01-.65-6.716-1.746C19.4 41.351 17.074 42 14.39 42c-5.624 0-9.706-2.826-9.706-6.72 0-.521.078-1.022.219-1.501-3.3-1.682-3.45-6.841-2.112-11.157.614-1.977 1.662-3.582 2.647-4.766.047-1.146.335-2.241.834-3.265C6.488 6.51 13.055 0 21.115 0c8.047 0 14.606 6.49 14.841 14.554.517 1.047.815 2.169.856 3.345.976 1.179 2.006 2.768 2.613 4.723 1.34 4.317 1.189 9.479-2.115 11.159zm-1.542-10.025c-.66-2.127-2.05-3.681-2.915-4.497.09-.351.15-.708.15-1.074 0-.947-.317-1.85-.882-2.676.008-.17.03-.337.03-.51 0-6.174-4.945-11.179-11.045-11.179S10.06 8.824 10.06 15c0 .18.021.355.03.533-.554.82-.867 1.714-.867 2.652 0 .358.059.707.144 1.05-.862.81-2.272 2.374-2.939 4.521-.99 3.187-.693 6.333.314 6.675.65.221 1.553-.67 2.379-2.181.607 1.662 1.57 3.155 2.788 4.407-2.013.46-3.417 1.459-3.417 2.624 0 1.602 2.636 2.9 5.887 2.9 2.41 0 4.476-.715 5.387-1.736.44.045.884.076 1.337.076.448 0 .888-.03 1.323-.075.912 1.021 2.976 1.735 5.385 1.735 3.252 0 5.887-1.298 5.887-2.9 0-1.163-1.398-2.159-3.405-2.621 1.218-1.25 2.18-2.74 2.788-4.398.824 1.503 1.724 2.39 2.373 2.169 1.006-.342 1.302-3.488.313-6.675z" transform="translate(46 356) translate(16 14)"/>
                </g>
            </g>
        </g>
    </g>
</svg>
