<svg xmlns="http://www.w3.org/2000/svg" width="43" height="43" viewBox="0 0 43 43">
    <defs>
        <linearGradient id="p8uxu03yaa" x1="0%" x2="81.467%" y1="0%" y2="88.27%">
            <stop offset="0%" stop-color="#C91FEC"/>
            <stop offset="100%" stop-color="#1772D1"/>
        </linearGradient>
    </defs>
    <g fill="none" fill-rule="evenodd">
        <g fill="url(#p8uxu03yaa)" transform="translate(-62 -283)">
            <g>
                <g>
                    <path d="M13.331 16.383c-1.158 0-2.1 1.177-2.1 2.625 0 1.449.942 2.625 2.1 2.625 1.158 0 2.1-1.176 2.1-2.625 0-1.448-.937-2.625-2.1-2.625zm14.7 5.25c1.158 0 2.1-1.176 2.1-2.625 0-1.448-.942-2.625-2.1-2.625-1.158 0-2.1 1.177-2.1 2.625 0 1.453.942 2.625 2.1 2.625zm14.348-3.15C40.856 8.386 32.165.633 21.637.633c-11.597 0-21 9.403-21 21s9.403 21 21 21 21-9.403 21-21m-21 16.8c-9.262 0-16.8-7.537-16.8-16.8 0-9.262 7.538-16.8 16.8-16.8 8.611 0 15.722 6.516 16.683 14.874-2.128 3.618-5.644 6.36-9.844 7.556-.562-.863-1.532-1.43-2.634-1.43h-5.25c-1.74 0-3.15 1.411-3.15 3.15 0 1.74 1.41 3.15 3.15 3.15h5.25c.455 0 .881-.098 1.27-.272 3.942-.623 7.52-2.31 10.397-4.762-2.278 6.586-8.522 11.334-15.872 11.334z" transform="translate(46 270) translate(16 13)"/>
                </g>
            </g>
        </g>
    </g>
</svg>
