<svg xmlns="http://www.w3.org/2000/svg" width="20" height="20" viewBox="0 0 20 20">
    <defs>
        <linearGradient id="ei6xagr6ea" x1="11.324%" x2="74.34%" y1="0%" y2="88.27%">
            <stop offset="0%" stop-color="#C91FEC"/>
            <stop offset="100%" stop-color="#1772D1"/>
        </linearGradient>
    </defs>
    <g fill="none" fill-rule="evenodd">
        <g fill="url(#ei6xagr6ea)" transform="translate(-41 -299)">
            <g>
                <g>
                    <g>
                        <path d="M18.749 4.355v4.652c.001 1.252-.223 2.494-.663 3.666-.878 2.36-2.49 4.375-4.6 5.748-1.065.695-2.246 1.194-3.487 1.475-1.24-.28-2.421-.78-3.487-1.475-2.11-1.373-3.723-3.389-4.6-5.75-.439-1.17-.663-2.412-.662-3.663V4.355c0-.506.304-.961.771-1.155l7.5-3.105c.306-.127.65-.127.957 0l7.5 3.105c.466.194.77.65.77 1.155zm-8.75 5.52V1.87L3.185 4.712v5.163h6.814v8.111c.9-.239 1.752-.63 2.519-1.16.762-.524 1.444-1.156 2.025-1.876 1.22-1.444 2.007-3.203 2.27-5.074H10v-.001z" transform="translate(31 283) translate(10 16)"/>
                    </g>
                </g>
            </g>
        </g>
    </g>
</svg>
