<svg xmlns="http://www.w3.org/2000/svg" width="28" height="28" viewBox="0 0 28 28">
    <defs>
        <linearGradient id="su7fa39d3a" x1="50%" x2="50%" y1="0%" y2="100%">
            <stop offset="0%" stop-color="#EFCEA6"/>
            <stop offset="100%" stop-color="#DAB591"/>
        </linearGradient>
    </defs>
    <g fill="none" fill-rule="evenodd">
        <g fill="url(#su7fa39d3a)" transform="translate(-174 -106)">
            <g>
                <g>
                    <path d="M14 0c7.732 0 14 6.268 14 14s-6.268 14-14 14S0 21.732 0 14 6.268 0 14 0zm6.415 15.83H7.653c-.153 0-.3.062-.409.17-.108.108-.169.255-.169.409v1.11c0 .319.258.578.578.578h8.761l.005 1.681c0 .233.14.442.356.532.214.09.462.042.628-.121l3.417-3.369c.166-.164.217-.413.128-.63-.089-.217-.3-.359-.533-.36zM11 7.646c-.151 0-.296.06-.404.166l-3.417 3.37c-.167.164-.218.413-.129.63.09.217.3.36.535.359h12.763c.319 0 .578-.259.578-.578v-1.11c0-.153-.061-.3-.17-.409-.108-.108-.255-.17-.408-.17h-8.762l-.006-1.682c-.001-.319-.26-.576-.58-.576z" transform="translate(24 96) translate(140 10) translate(10)"/>
                </g>
            </g>
        </g>
    </g>
</svg>
