<svg xmlns="http://www.w3.org/2000/svg" width="20" height="20" viewBox="0 0 20 20">
    <g fill="none" fill-rule="evenodd">
        <g>
            <g>
                <g>
                    <path fill="#8F8F8F" d="M10 16.25c-3.056 0-5.782-1.928-8.172-5.695-.215-.339-.215-.771 0-1.11C4.218 5.678 6.944 3.75 10 3.75c3.056 0 5.782 1.928 8.172 5.695.215.339.215.771 0 1.11-2.39 3.767-5.116 5.695-8.172 5.695zM10 5c-2.53 0-4.872 1.638-7.034 5C5.128 13.362 7.47 15 10 15c2.53 0 4.872-1.638 7.034-5C14.872 6.638 12.53 5 10 5zm0 7.917c-1.625 0-2.943-1.306-2.943-2.917 0-1.61 1.318-2.917 2.943-2.917S12.943 8.39 12.943 10c0 1.61-1.318 2.917-2.943 2.917zm0-1.25c.929 0 1.682-.747 1.682-1.667S10.929 8.333 10 8.333c-.929 0-1.682.747-1.682 1.667s.753 1.667 1.682 1.667z" transform="translate(-324 -237) translate(31 221) translate(293 16)"/>
                </g>
            </g>
        </g>
    </g>
</svg>
