<svg xmlns="http://www.w3.org/2000/svg" width="28" height="28" viewBox="0 0 28 28">
    <defs>
        <linearGradient id="bhbg0qoe5a" x1="0%" x2="81.467%" y1="0%" y2="88.27%">
            <stop offset="0%" stop-color="#C91FEC"/>
            <stop offset="100%" stop-color="#1772D1"/>
        </linearGradient>
    </defs>
    <g fill="none" fill-rule="evenodd">
        <g fill="url(#bhbg0qoe5a)" transform="translate(-215 -190)">
            <g>
                <g>
                    <path d="M23.678 0c.66 0 1.2.54 1.2 1.2v8.903C26.666 10.493 28 12.096 28 14c0 1.064-.42 2.069-1.17 2.833-.54.555-1.216.914-1.951 1.08V26.8c0 .66-.54 1.199-1.2 1.199H1.2C.54 28 0 27.46 0 26.8v-6.265c0-.66.54-1.199 1.2-1.199.66 0 1.2.54 1.2 1.2v5.066h20.078v-7.6h-2.296c-2.206 0-4.006-1.799-4.006-4.002 0-1.08.42-2.084 1.17-2.833.765-.75 1.77-1.17 2.836-1.17h2.296V2.399H2.401v5.067c0 .66-.54 1.199-1.2 1.199-.66 0-1.201-.54-1.201-1.2V1.2C0 .54.54 0 1.2 0zM4.817 9.623c.465-.465 1.23-.465 1.695 0l3.512 3.508c.03.03.045.06.075.09.015.015.015.03.03.045.015.03.03.044.045.06.015.014.015.03.03.044.015.015.015.03.03.045.015.03.015.045.03.06s.03.03.03.045c0 .03.015.045.015.06s.015.045.015.06c0 .03.015.045.015.06s.015.045.015.06c.015.015.015.045.015.06v.045c.015.075.015.165 0 .24v.045c-.015.015-.015.045-.015.06s-.015.045-.015.06c0 .03-.015.045-.015.06 0 .03-.015.045-.015.06 0 .03-.015.045-.015.06-.015.015-.015.03-.03.045-.015.03-.015.045-.03.06s-.015.03-.03.045c-.015.03-.015.045-.03.06 0 .015-.015.03-.03.044-.015.015-.015.03-.03.045l-.075.075v.015l-3.512 3.523c-.24.225-.54.345-.855.345-.315 0-.615-.105-.855-.345-.465-.465-.465-1.23 0-1.694l1.47-1.469H1.305c-.66 0-1.2-.54-1.2-1.199 0-.675.54-1.2 1.2-1.214h4.982l-1.47-1.47c-.465-.464-.465-1.228 0-1.693zm19.177 2.773h-3.827c-.42 0-.825.165-1.125.465-.3.3-.465.704-.465 1.124 0 .884.72 1.604 1.605 1.604h3.827c.42 0 .825-.165 1.125-.465.3-.3.465-.704.465-1.124 0-.884-.72-1.604-1.605-1.604z" transform="translate(14 178) translate(201 12)"/>
                </g>
            </g>
        </g>
    </g>
</svg>
