<svg xmlns="http://www.w3.org/2000/svg" width="28" height="28" viewBox="0 0 28 28">
    <defs>
        <linearGradient id="s3ym2019ka" x1="50%" x2="50%" y1="0%" y2="100%">
            <stop offset="0%" stop-color="#EFCEA6"/>
            <stop offset="100%" stop-color="#DAB591"/>
        </linearGradient>
    </defs>
    <g fill="none" fill-rule="evenodd">
        <g fill="url(#s3ym2019ka)" transform="translate(-74 -115)">
            <g>
                <g>
                    <g>
                        <path d="M14 0c7.732 0 14 6.268 14 14s-6.268 14-14 14S0 21.732 0 14 6.268 0 14 0zm7.254 13.594h-9.609v1.548h3.997v4.13c-.017 0-.033-.017-.033-.017-.633-.266-1.183-.849-1.682-1.748.116-.533.2-1.1.233-1.699l-1.532-.183c-.133 1.799-.783 3.43-1.948 4.896l1.298 1.132c.583-.766 1.05-1.582 1.416-2.447.466.716.966 1.215 1.532 1.498.832.4 2.348.6 4.58.616.515.017 1.098.034 1.731.034l.483-1.682c-.633.066-1.415.116-2.331.116-.783 0-1.466-.05-2.065-.116v-1.615h3.18v-1.533h-3.18v-1.382h3.93v-1.548zM10.147 6.3H8.382v2.947H6.566v1.682h1.816v3.297c-.683.234-1.383.433-2.082.6l.433 1.765c.566-.183 1.116-.383 1.649-.583v3.347c0 .367-.184.567-.55.567-.4 0-.816-.034-1.249-.1l.383 1.682h1.465c1.133 0 1.716-.567 1.716-1.699v-4.563l1.199-.6v-1.764l-1.2.616v-2.565h1.483V9.247h-1.482V6.3zm10.124.45h-7.56v6.078h7.56V6.75zm-1.698 3.68v.999h-4.18v-1h4.18zm0-2.282v.983h-4.18v-.983h4.18z" transform="translate(24 96) translate(50 19)"/>
                    </g>
                </g>
            </g>
        </g>
    </g>
</svg>
