<svg xmlns="http://www.w3.org/2000/svg" width="26" height="26" viewBox="0 0 26 26">
    <g fill="none" fill-rule="evenodd">
        <g fill="#FFF">
            <g>
                <g>
                    <path d="M17.537 9.893c-.143-.026-.286-.026-.312-.026-.039 0-.039.039-.182.624l-.143.624h.208c.988.026 1.417-1.131.429-1.222zm.507 4.628h-.286l-.078.286c-.039.169-.078.286-.078.286s.078-.026.169-.065c.078-.039.221-.065.286-.078.078-.026.143-.026.143-.026l.117-.416c0 .039-.13.013-.273.013zm1.326-1.924c.273.143.598-.351.598-.897 0-.247-.143-.377-.325-.273-.299.143-.481 1.066-.273 1.17zm5.174-7.865c-.117-.039-18.876-.065-19.175-.026-.715.104-1.417.689-1.664 1.391C3.562 6.526.767 20.059.741 20.293c-.026.637.325 1.118.923 1.248.221.039 18.967.039 19.214 0 .676-.13 1.3-.663 1.547-1.326.104-.247 2.964-14.027 2.977-14.235.065-.585-.286-1.066-.858-1.248zm-4.706 6.175c.065.026.117.078.169.13.065.065.065.065.065.026 0-.065 0-.039.52-.143.416-.065.416-.065.364.065-.169.728-.312 1.365-.364 1.677-.078.481-.026.416-.533.416h-.429v-.065c0-.065-.026-.078-.039-.039-.143.234-.845.143-1.053-.143-.468-.715.559-2.275 1.3-1.924zM16.38 9.334v-.039h.949c.741 0 .962.026 1.066.039.598.13.78.624.494 1.326-.273.728-.858 1.04-1.872 1.04-.312 0-.286-.039-.494.936-.039.182-.078.351-.078.377-.026.065-.923.065-.923 0 .806-3.367.858-3.653.858-3.679zm-3.302 3.302c.117-.52.221-1.014.286-1.365.039-.338.026-.286.325-.351.143-.026.325-.065.39-.065.169-.039.208-.039.208.026 0 .026 0 .078-.026.104l-.026.078.169-.078c.806-.416 1.105-.078.884 1.001-.065.247-.117.585-.143.741-.026.169-.065.312-.078.338-.039.039-.819.039-.806 0 0-.026.039-.234.104-.481.221-.949.221-1.079.026-1.079-.143 0-.247.065-.273.169-.039.143-.221 1.105-.273 1.261l-.026.143-.416.026c-.494-.039-.455.013-.325-.468zm.39 1.651l-.143.455H12.22l-.065.065c-.143.13-.91.312-.91.208l.143-.481h.104c.182 0 .221-.039.364-.312l.143-.247c.663 0 .78 0 .78.026s-.026.065-.065.13c-.039.065-.065.104-.065.13.793.013.819.013.819.026zm-9.932-1.898c-.039-.208.39-2.444.572-3.068 0-.039 1.053-.026 1.053.026 0 .026-.026.078-.039.169-.286 1.014-.598 2.405-.559 2.574.104.52.845.481 1.105-.065.078-.143.637-2.535.637-2.691 0 0 .884 0 .884.026 0 0 0 .039-.026.078 0 .039-.143.598-.312 1.248-.351 1.391-.39 1.534-.572 1.807-.598.819-2.574.806-2.743-.104zm5.512-.104c-.039.169-.078.416-.104.52-.039.273-.026.247-.468.247-.39 0-.39 0-.39-.039 0-.026.039-.234.104-.481.208-.936.208-1.053.039-1.053-.104 0-.247.065-.247.104-.026.078-.247 1.222-.273 1.352l-.026.13-.416.026c-.494.026-.455.065-.351-.39.156-.611.234-1.001.286-1.378.065-.39.026-.351.39-.416.169-.026.351-.065.39-.065.117-.026.169-.026.169.039 0 .039 0 .078-.026.104l-.039.065.169-.078c.416-.208.819-.169.949.078.065.156.052.26-.156 1.235zm1.456-.858c-.104.416-.286 1.261-.325 1.43l-.039.182-.429.026c-.52.026-.468.039-.364-.273.104-.286.182-.663.247-1.053.039-.338 0-.286.364-.338.169-.026.351-.065.39-.065.104-.026.169-.026.169 0 .013-.026.013.039-.013.091zm-.754-.26c-.247-.247.247-.637.676-.52.117.039.221.13.221.234 0 .299-.676.533-.897.286zm.936 1.196c0-1.014.741-1.664 1.69-1.495 1.001.182.663 1.95-.429 2.171-.741.169-1.261-.091-1.261-.676zm1.807 5.083l-.078.247h-.533c-.845 0-.858-.026-.637-.767.065-.234.117-.429.117-.429h-.221c-.117 0-.221 0-.221-.026.104-.338.117-.429.117-.455 0-.026.039-.039.221-.039h.221l.104-.39h-.208c-.169 0-.208 0-.208-.026s.117-.416.117-.429c.026-.026 1.976-.026 1.95 0l-.143.455h-.78c-.078.247-.104.351-.104.377 0 .039.026.039.39.039.221 0 .39 0 .39.026 0 0 0 .039-.026.078 0 .039-.039.143-.065.234l-.065.169h-.806l-.078.312c-.143.429-.117.455.364.39.286-.052.286-.078.182.234zm3.289-1.209c-.078.377-.182.455-.598.481-.143 0-.273.026-.273.026-.039.039-.026.351 0 .39l.039.065.247-.026c.143 0 .247-.026.247 0s-.143.481-.143.494c-.026.039-.819 0-.923-.026-.169-.065-.169-.039-.143-.845l.026-.728h.663v.273h.117c.143 0 .169-.026.221-.182l.039-.104h.247c.247 0 .273 0 .273.026.013.013-.013.104-.039.156zm-.221-.351l-.117.065h-1.482l-.117.429c-.273.845-.273.793.117.741.312-.026.286-.065.182.273l-.078.273h-.39c-.819.026-.923-.039-.845-.377.039-.169.962-3.276.988-3.315.026-.026.676-.026.676 0s-.026.078-.039.169c-.026.065-.039.143-.039.143s.065-.039.143-.078c.286-.182.533-.234 1.248-.234h.533c.026.026-.416 1.456-.468 1.573-.065.195-.169.273-.312.338zm5.824-.663l-.065.234h-.78c-.065.208-.104.286-.104.312l-.026.065h.364c.429 0 .416-.026.325.247l-.065.208h-.858l-.065.078-.065.078h.325l.039.312c.065.351.065.351.221.351.143 0 .117-.026.039.286l-.078.247h-.247c-.429 0-.52-.065-.572-.494l-.039-.286-.169.208c-.429.598-.455.598-1.001.598-.351 0-.351 0-.312-.104.026-.065.026-.065-.078-.065s-.104 0-.117.078l-.026.078h-.741l.026-.039c.039-.13.104-.13-.702-.13-.676 0-.715 0-.715-.039l.065-.234c.078-.247.065-.234.143-.234.065 0 .065 0 .104-.104.611-2.054.806-2.691.845-2.795l.039-.169h.364c.208 0 .364 0 .364.026 0 0-.026.065-.026.104-.039.13-.039.13.117.039.221-.104.741-.169 1.807-.169h.351v.169c0 .182 0 .208.169.208l.117.026-.065.234-.065.234h-.221c-.598.026-.702-.039-.702-.39v-.169l-.039.13-.039.13h-.247s-.637 2.132-.715 2.431c0 .026 0 .039.078.039.104 0 .117 0 .078.104-.039.13-.039.13.104.13.078 0 .143-.026.208-.039.104-.039.078-.039.494-.624l.169-.247h-.351c-.429 0-.39.026-.312-.234l.065-.208h.858c.078-.273.104-.351.104-.377 0 0-.182-.026-.416-.026h-.364l.065-.234.065-.234h1.17c.637 0 1.17 0 1.17.026.013.026-.026.13-.065.234zm1.885-3.848c-.455.767-1.053 1.872-1.274 2.262-.663 1.222-.663 1.209-1.209 1.222h-.325l.026-.104c.026-.065.039-.169.065-.247l.039-.143h.104c.117 0 .143-.026.247-.208l.143-.234c.039-.065.169-.273.273-.481l.208-.377-.065-.494c-.065-.559-.143-1.222-.182-1.43-.026-.182-.026-.182.208-.208.104-.026.273-.039.364-.065.208-.039.247-.039.247-.026.039.806.065 1.04.065 1.04s.117-.182.247-.455c.273-.52.208-.481.494-.52.078-.026.221-.039.351-.065.299-.039.299-.052-.026.533zm-8.905 3.172l-.065.247c-.039.104-.065.234-.078.234 0 .026.065-.026.169-.065.247-.143.325-.143.715-.169l.325-.026c.039-.169.065-.234.065-.234 0-.013-1.105-.013-1.131.013zm-2.34-2.392c.182-.624.117-.91-.169-.793-.247.104-.468 1.04-.286 1.209.169.104.377-.078.455-.416zm4.992 4.849l.572.026c.117-.39.169-.52.169-.533l-.572-.026-.169.533zm.351-1.196c-.039.169-.078.286-.078.312 0 0 .065-.026.143-.065.078-.039.221-.078.312-.104.169-.026.182-.039.208-.104 0-.039.039-.13.065-.208l.039-.143h-.572c-.013 0-.052.143-.117.312zm-3.25-.494l-.039.182h1.105l.065-.208c-.858 0-1.131 0-1.131.026z" transform="translate(-25 -803) translate(10 220) translate(0 561) translate(15 22)"/>
                </g>
            </g>
        </g>
    </g>
</svg>
