<svg xmlns="http://www.w3.org/2000/svg" width="12" height="12" viewBox="0 0 12 12">
    <g fill="none" fill-rule="evenodd">
        <g fill="#9A9AA7">
            <g>
                <g>
                    <path d="M9.245 3.657c-.617 0-2.153 1.53-3.275 2.616-1.7 1.645-3.308 3.244-4.594 3.244h-.79C.261 9.517 0 9.254 0 8.93c0-.324.262-.586.585-.586h.791c.813 0 2.458-1.636 3.78-2.915 1.61-1.556 3-2.945 4.089-2.945H10l-.802-.777c-.228-.229-.229-.577 0-.806.228-.229.599-.23.828 0l1.802 1.8c.11.109.172.258.172.413 0 .156-.062.304-.172.414l-1.802 1.799c-.115.114-.264.168-.414.168-.15 0-.3-.063-.414-.177-.229-.23-.228-.611 0-.84L10 3.657h-.755zm.78 3.014c-.228-.228-.599-.228-.827.001-.229.23-.228.622 0 .85l.802.823h-.755c-.481 0-1.284-.712-2.08-1.457-.237-.221-.607-.22-.828.016-.22.236-.208.624.028.845 1.213 1.135 2.031 1.768 2.88 1.768H10l-.802.777c-.228.229-.229.588 0 .817.114.115.264.166.414.166.15 0 .3-.06.414-.174l1.802-1.801c.11-.11.172-.26.172-.415 0-.156-.062-.305-.172-.415l-1.802-1.8zM.586 3.657h.791c.617 0 1.537.786 2.27 1.451.111.102.252.164.393.164.159 0 .318-.06.433-.187.217-.24.2-.63-.04-.847-1.145-1.04-2.103-1.753-3.056-1.753h-.79c-.324 0-.586.263-.586.586 0 .324.262.586.585.586z" transform="translate(-12 -127) translate(0 124) translate(12 3)"/>
                </g>
            </g>
        </g>
    </g>
</svg>
