<svg xmlns="http://www.w3.org/2000/svg" width="16" height="16" viewBox="0 0 16 16">
    <g fill="none" fill-rule="evenodd">
        <g fill="#9A9AA7">
            <g>
                <g>
                    <g>
                        <path d="M15.728 15.383l-1.076-6.205h.363c.293 0 .528-.236.528-.528V4.75c0-.292-.235-.528-.528-.528H10.02V.528C10.02.236 9.785 0 9.492 0H6.244c-.293 0-.528.236-.528.528v3.695H.72c-.293 0-.528.236-.528.528V8.65c0 .292.235.528.528.528h.363L.008 15.383c-.006.03-.008.06-.008.09 0 .291.236.527.528.527h14.68c.03 0 .061-.002.09-.008.288-.049.48-.323.43-.61zM1.614 5.645h5.523V1.42H8.6v4.224h5.523v2.111H1.614V5.645zm9.503 8.934V11.41c0-.09-.073-.162-.163-.162H9.98c-.09 0-.163.073-.163.162v3.168H5.92V11.41c0-.09-.073-.162-.163-.162h-.974c-.09 0-.163.073-.163.162v3.168H1.59l.917-5.28h10.722l.916 5.28h-3.027z" transform="translate(-225 -430) translate(103 428) translate(122 2)"/>
                    </g>
                </g>
            </g>
        </g>
    </g>
</svg>
