<svg xmlns="http://www.w3.org/2000/svg" width="26" height="26" viewBox="0 0 26 26">
    <g fill="none" fill-rule="evenodd">
        <g fill="#FFF">
            <g>
                <g>
                    <path d="M4.542 9.838c.041.537.1 1.076.121 1.616.039 1.001-.359 1.799-1.174 2.383-.628.45-1.316.776-2.066.954-.877.205-1.61-.516-1.38-1.39.13-.498.296-1.005.556-1.443.647-1.088 1.04-2.265 1.364-3.474.06-.226.14-.45.24-.661.175-.365.575-.555.957-.439.276.083.546.202.804.338.409.213.806.456 1.209.688.246-.264.483-.543.738-.798.898-.892 2.007-1.458 3.136-1.98 1.77-.818 3.59-1.511 5.504-1.909.886-.183 1.793-.302 2.697-.37 1.08-.08 2.164-.122 3.243-.095 1.402.033 2.783.22 4.064.863.69.346 1.268.827 1.393 1.615.086.551.053 1.135-.01 1.695-.103.952-.491 1.83-.87 2.695-.101.228-.365.412-.593.545-.578.338-1.224.513-1.88.637-1.846.353-3.657.196-5.424-.438-1.049-.377-1.894-1.061-2.664-1.847-.08-.08-.146-.19-.243-.237-.104-.05-.27-.092-.344-.042-.077.054-.122.229-.101.332.027.125.122.25.213.347 1.118 1.21 2.478 2.019 4.082 2.39 1.915.44 3.82.417 5.7-.205.106-.036.213-.077.317-.125.1-.044.201-.1.34-.124-.207.302-.402.61-.619.904-1.458 1.956-3.328 3.331-5.688 4.019-1.505.439-3.011.376-4.508.012-2.502-.61-4.799-1.66-6.779-3.338-.616-.521-1.197-1.084-1.603-1.793-.157-.273-.29-.569-.365-.868-.062-.24-.16-.395-.367-.457zm18.21-5.975c-.29.026-.583.038-.87.083-.445.07-.87.216-1.222.507-.311.254-.276.622.071.818.14.077.297.133.45.175.703.192 1.42.142 2.132.062.364-.042.726-.157 1.07-.29.237-.093.415-.294.403-.585-.012-.275-.237-.376-.439-.47-.504-.232-1.043-.297-1.594-.3zm-8.35 3.245c.422 0 .75-.296.75-.67-.002-.37-.346-.678-.752-.675-.424.003-.741.293-.744.675 0 .374.326.667.747.67zm3.264 16.145c-.195 0-.382.012-.566-.005-.05-.006-.118-.092-.133-.155-.137-.533-.252-1.076-.4-1.606-.057-.208-.163-.41-.285-.59-.184-.276-.492-.311-.7-.053-.201.249-.379.53-.503.827-.181.432-.312.886-.439 1.34-.053.186-.119.284-.326.251-.116-.017-.24-.003-.385-.003.03-.776.056-1.53.086-2.35-.184.092-.323.136-.43.22-.246.198-.49.402-.712.628-.403.412-.794.838-1.185 1.265-.246.267-.332.294-.756.196.5-.85.999-1.693 1.512-2.555-.492-.142-.922-.338-1.106-.842-.116-.314-.098-.625.03-.948.03.11.053.222.086.332.166.566.664.86 1.224.69.145-.044.305-.166.385-.293.492-.795.966-1.6 1.435-2.407.086-.148.172-.175.332-.148.77.121 1.544.237 2.32.032.17-.044.333-.115.513-.18.003 2.107.003 4.211.003 6.354z" transform="translate(-27 -592) translate(10 220) translate(2 350) translate(15 22)"/>
                </g>
            </g>
        </g>
    </g>
</svg>
