<svg xmlns="http://www.w3.org/2000/svg" width="15" height="16" viewBox="0 0 15 16">
    <g fill="none" fill-rule="evenodd">
        <g fill="#9A9AA7">
            <g>
                <g>
                    <g>
                        <path d="M8.055 0C6.524 0 5.281 1.295 5.228 2.92h-3.57c-.396 0-.72.344-.72.77 0 .423.322.769.72.769h.796v8.605C2.454 14.68 3.481 16 4.75 16h6.466c1.267 0 2.296-1.313 2.296-2.936v-8.6h.721c.397 0 .721-.344.721-.77 0-.422-.322-.768-.72-.768h-3.357C10.832 1.295 9.587 0 8.055 0zM6.58 2.92c.053-.833.69-1.479 1.479-1.479.788 0 1.425.649 1.47 1.48H6.58zM4.748 14.563c-.45 0-.945-.616-.945-1.498v-8.6h8.356v8.608c0 .88-.496 1.497-.945 1.497H4.748v-.007zm.968-1.85c.33 0 .601-.35.601-.791V7.4c0-.441-.269-.792-.6-.792-.33 0-.602.351-.602.792v4.52c0 .439.265.793.601.793zm2.176 0c.33 0 .6-.35.6-.791V7.4c0-.441-.268-.792-.6-.792-.33 0-.601.351-.601.792v4.52c0 .439.272.793.6.793zm2.288 0c.33 0 .601-.35.601-.791V7.4c0-.441-.269-.792-.6-.792-.33 0-.602.351-.602.792v4.52c0 .439.262.793.601.793z" transform="translate(-103 -430) translate(103 428) translate(0 2)"/>
                    </g>
                </g>
            </g>
        </g>
    </g>
</svg>
