<svg xmlns="http://www.w3.org/2000/svg" width="26" height="26" viewBox="0 0 26 26">
    <g fill="none" fill-rule="evenodd">
        <g fill="#FFF">
            <g>
                <g>
                    <path d="M15.59 15.15s.639-.954 1.317-2.825c.679-1.868.775-2.9.775-2.9l-5.368-.046V7.546l6.504-.046V6.204h-6.504V3.25H9.13v2.954H3.06V7.5l6.064-.046V9.42H4.261v1.033h10.018s-.111.835-.493 1.867c-.382 1.04-.779 1.947-.779 1.947s-4.707-1.643-7.19-1.643c-2.478 0-5.492.996-5.785 3.882-.29 2.89 1.404 4.454 3.793 5.032 2.39.579 4.593-.007 6.514-.946 1.922-.94 3.804-3.075 3.804-3.075l9.957 4.836s.625-.943 1.075-1.825c.45-.875.825-1.879.825-1.879l-10.41-3.5zM5.31 19.957c-3.514 0-4.25-1.725-4.25-2.964 0-1.24.733-2.59 3.719-2.786 2.989-.193 7.025 2.118 7.025 2.118s-2.979 3.632-6.493 3.632z" transform="translate(-27 -382) translate(10 220) translate(2 140) translate(15 22)"/>
                </g>
            </g>
        </g>
    </g>
</svg>
