<svg xmlns="http://www.w3.org/2000/svg" width="26" height="26" viewBox="0 0 26 26">
    <g fill="none" fill-rule="evenodd">
        <g fill="#FFF">
            <g>
                <g>
                    <path d="M18.677.087s2.6-.737 3.423 2.166c0 0 .347.824-1.083.91-2.514.13-12.047 3.25-14.517 9.404v.043c-.26.78-.433 1.56-.433 2.427 0 3.813 3.12 6.933 6.933 6.933 3.813 0 6.933-3.12 6.933-6.933 0-3.77-2.99-6.804-6.716-6.934.78-.346 1.733-.65 2.73-.693 2.6-.087 5.98.65 7.67 5.157.086.13.216.78.26.953.086.52.13 1.04.13 1.56 0 6.023-4.897 10.92-10.92 10.92-6.067 0-10.964-4.897-10.92-10.963 0-3.554 1.56-6.717 4.203-8.71.39-.347.823-.65.823-.65l.087-.217C2.903 4.073 2.47.043 2.47.043S8.883 3.64 18.677.087zm-6.067 11.96c.26-.26.65-.26.91 0l2.557 2.556c.26.26.26.65 0 .91l-2.86 2.774-3.597-3.424z" transform="translate(-27 -662) translate(10 220) translate(2 420) translate(15 22)"/>
                </g>
            </g>
        </g>
    </g>
</svg>
