<svg xmlns="http://www.w3.org/2000/svg" width="26" height="26" viewBox="0 0 26 26">
    <g fill="none" fill-rule="evenodd">
        <g fill="#FFF">
            <g>
                <g>
                    <path d="M23.562 3.25H2.437C1.095 3.25 0 4.347 0 5.688v14.624c0 1.341 1.095 2.438 2.437 2.438h21.125c1.34 0 2.438-1.097 2.438-2.438V5.688c0-1.341-1.098-2.438-2.438-2.438zm.813 17.062c0 .44-.371.813-.813.813H2.437c-.44 0-.812-.373-.812-.813V13h22.75v7.312zm0-12.187H1.625V5.688c0-.44.371-.813.812-.813h21.125c.442 0 .813.372.813.813v2.437zM3.25 16.25h1.625v3.25H3.25v-3.25zm3.25 0h1.625v3.25H6.5v-3.25zm3.25 0h1.625v3.25H9.75v-3.25z" transform="translate(-27 -452) translate(10 220) translate(2 210) translate(15 22)"/>
                </g>
            </g>
        </g>
    </g>
</svg>
