<svg xmlns="http://www.w3.org/2000/svg" width="26" height="26" viewBox="0 0 26 26">
    <g fill="none" fill-rule="evenodd">
        <g fill="#FFF">
            <g>
                <g>
                    <path d="M21.691.074c2.36 0 4.274 1.913 4.274 4.273v17.37c0 2.36-1.914 4.274-4.274 4.274H4.321c-2.36 0-4.273-1.913-4.273-4.274V4.347C.048 1.988 1.96.075 4.32.075zM10.168 10.847H8.165s-.025.164-.108.817l-.025.2c-.099.783-.263 2.136-.531 4.43-.404 3.05-2.73 3.279-3.278 3.29h-.116l-.206 1.795c2.848-.276 3.608-1.468 4.264-2.09.846 1.762 3.436 2.09 3.436 2.09l.156-1.796c-2.815-.207-2.417-2.596-2.418-2.59l.087-.552.742-5.594zM21.322 7.86h-2.28l-.18 1.2H14.77l-.959 1.787h4.826s1.08 1.105.475 3.68c-.559 2.844-2.98 6.13-3.34 6.608l-.039.052-.005.006h2.538c1.32 0 1.515-1.489 1.515-1.489l1.165-8.896h1.01l.156-1.748h-.92l.13-1.2zm-3.194 3.712h-2.08l-2.323 6.51c-.326.99-.88 1.069-1.031 1.071h-.035c-.005-.001-.04.258-.315 1.863 2.555.242 3.263-2.538 3.263-2.538l2.52-6.906zm-4.61-3.712H7.382c-.107.008-1.445.13-1.876 1.623-.843 6-1.122 8.305-1.122 8.305h1.917l1.148-8.15 3.92.009-1.2 8.14h2.002l1.347-9.927zm3.345-3.174c-.183 0-.346.047-.491.142-.145.095-.251.232-.319.411-.068.18-.09.377-.065.593.03.265.117.468.263.608.147.14.336.21.568.21.206 0 .38-.057.521-.17.141-.112.238-.275.291-.488l-.4-.06c-.027.129-.079.226-.156.292-.077.065-.166.098-.267.098-.108 0-.204-.041-.286-.124-.082-.083-.131-.2-.148-.352-.016-.14-.003-.278.037-.418.04-.139.104-.242.19-.307.087-.066.184-.099.292-.099.098 0 .18.025.244.075.065.05.114.13.147.24l.37-.036c-.044-.19-.135-.34-.274-.45-.14-.11-.311-.165-.517-.165zm1.954 0c-.176 0-.328.036-.457.107-.13.07-.232.168-.309.29-.076.123-.127.267-.153.434-.02.124-.023.242-.01.355.013.12.05.24.114.359.063.118.16.218.288.298.13.08.282.12.459.12.204 0 .38-.05.53-.15.15-.102.262-.246.336-.433.073-.187.098-.381.076-.581-.027-.241-.12-.434-.281-.58-.161-.146-.359-.22-.593-.22zm.005.326c.124 0 .231.053.32.158.09.106.144.25.16.436.015.165-.001.336-.049.51-.048.175-.116.306-.206.392-.089.086-.186.13-.292.13-.129 0-.238-.055-.328-.164-.089-.11-.14-.245-.155-.406-.024-.263.014-.505.114-.725.1-.22.245-.33.436-.33zM6.64 4.718H5.145l-.031.317h.557l-.156 1.58h.391l.154-1.58h.549l.03-.317zm14.01 0h-.557l-.185 1.898h.352l.125-1.586.245 1.586H21l.574-1.574-.199 1.574h.356l.187-1.898h-.563l-.5 1.33-.206-1.33zm-6.58 0h-.415l.652 1.159-.071.739h.39l.068-.703.737-1.195h-.453l-.225.385-.152.25c-.033.06-.063.119-.091.18-.026-.057-.073-.15-.144-.279l-.295-.536zm1.537 1.54h-.368l-.035.358h.367l.036-.359zm-2.496-1.54h-.434l-.862 1.898h.401l.181-.42h.752l.11.42h.37l-.518-1.898zm-1.773 0h-.771l-.186 1.898h.39l.072-.724h.25c.168 0 .282-.004.342-.013.104-.014.185-.036.244-.064.06-.028.113-.069.16-.123.048-.055.086-.127.113-.218.027-.09.035-.184.025-.28-.012-.103-.045-.192-.1-.267-.055-.074-.124-.128-.208-.16-.083-.033-.193-.049-.33-.049zm-2.31 0h-.365l-.185 1.898h.364l.124-1.275.655 1.275h.364l.185-1.898h-.363l-.124 1.27-.655-1.27zm-.737 0H6.884L6.7 6.616h1.483l.032-.317H7.109l.062-.515h.983l.03-.318h-.982l.043-.43H8.26l.03-.318zm4.58.424l.195.947h-.568l.373-.947zm-1.665-.107c.127 0 .21.008.248.024.038.017.069.044.092.08.024.036.038.083.043.14.008.084-.005.161-.038.232-.034.07-.084.122-.15.154-.066.032-.202.048-.408.048h-.12l.054-.678z" transform="translate(-27 -732) translate(10 220) translate(2 490) translate(15 22)"/>
                </g>
            </g>
        </g>
    </g>
</svg>
