<svg xmlns="http://www.w3.org/2000/svg" width="26" height="26" viewBox="0 0 26 26">
    <g fill="none" fill-rule="evenodd">
        <g fill="#FFF">
            <g>
                <g>
                    <path d="M11.505 10.881c1.63-1.37 3.787-2.128 6.067-2.128h.095C16.614 5.577 13.13 3.25 8.996 3.25 4.026 3.25 0 6.621 0 10.768c0 2.466 1.421 4.663 3.623 6.032.26.16-.806 2.423-.806 2.423s2.465-1.586 2.92-1.443c1.01.325 2.115.507 3.263.507.065 0 .13-.009.204-.009-.208-.65-.316-1.326-.316-2.02-.009-2.045.923-3.956 2.617-5.377zm.71-3.974c.746 0 1.348.516 1.348 1.153s-.602 1.153-1.347 1.153c-.746 0-1.348-.516-1.348-1.153-.004-.637.602-1.153 1.348-1.153zm-6.309 2.31c-.745 0-1.347-.516-1.347-1.153s.602-1.152 1.347-1.152c.746 0 1.348.515 1.348 1.152.004.633-.602 1.153-1.348 1.153zm19.136 7.046c0-3.462-3.34-6.279-7.466-6.279-4.125 0-7.466 2.812-7.466 6.279s3.34 6.279 7.466 6.279c.932 0 1.82-.143 2.639-.403.498.347 2.158 1.218 2.158 1.218s-.42-1.703-.455-1.994c1.89-1.14 3.124-2.998 3.124-5.1zm-9.797-1.036c-.56 0-1.01-.429-1.01-.957 0-.529.45-.958 1.01-.958.559 0 1.01.429 1.01.958 0 .524-.451.957-1.01.957zm4.905 0c-.559 0-1.01-.429-1.01-.957 0-.529.451-.958 1.01-.958.559 0 1.01.429 1.01.958 0 .524-.451.957-1.01.957z" transform="translate(-27 -312) translate(10 220) translate(2 70) translate(15 22)"/>
                </g>
            </g>
        </g>
    </g>
</svg>
