<svg xmlns="http://www.w3.org/2000/svg" width="26" height="26" viewBox="0 0 26 26">
    <g fill="none" fill-rule="evenodd">
        <g fill="#FFF">
            <g>
                <g>
                    <path d="M3.745 11.682L3.695 11.531 3.655 11.335 3.628 11.227 3.628 10.784 3.676 10.61 3.725 10.426 3.789 10.232 3.876 10.017 3.99 9.793 4.151 9.569 4.151 9.412 4.167 9.265 4.192 9.065 4.261 8.841 4.324 8.598 4.375 8.487 4.434 8.383 4.509 8.268 4.591 8.182 4.591 7.628 4.639 7.342 4.687 7.011 4.772 6.614 4.889 6.201 4.976 5.974 5.063 5.727 5.158 5.496 5.271 5.25 5.387 4.979 5.52 4.726 5.67 4.456 5.858 4.186 5.945 4.031 6.038 3.905 6.24 3.619 6.448 3.334 6.684 3.041 6.937 2.756 7.212 2.475 7.498 2.186 7.845 1.874 8.065 1.685 8.333 1.48 8.605 1.3 8.899 1.126 9.181 0.972 9.5 0.844 9.838 0.687 10.175 0.579 10.51 0.466 10.873 0.355 11.235 0.271 11.616 0.2 12.003 0.139 12.384 0.089 12.765 0.038 13.171 0.016 14.371 0.016 14.771 0.066 15.173 0.113 15.583 0.155 15.964 0.244 16.365 0.328 16.742 0.424 17.155 0.532 17.533 0.663 17.895 0.813 18.282 0.971 18.634 1.144 18.977 1.337 19.313 1.549 19.602 1.746 19.736 1.858 19.877 1.939 20.146 2.162 20.372 2.378 20.598 2.602 20.818 2.848 20.999 3.087 21.215 3.334 21.365 3.599 21.518 3.835 21.68 4.11 21.814 4.348 22.04 4.853 22.151 5.114 22.238 5.356 22.325 5.619 22.403 5.866 22.457 6.079 22.527 6.329 22.65 6.775 22.729 7.165 22.781 7.543 22.825 7.847 22.894 8.31 22.91 8.383 22.965 8.466 23.115 8.706 23.211 8.868 23.296 9.037 23.405 9.218 23.5 9.436 23.563 9.657 23.63 9.901 23.682 10.151 23.705 10.274 23.726 10.425 23.726 10.557 23.705 10.687 23.705 10.85 23.666 11.007 23.595 11.311 23.513 11.466 23.452 11.639 23.452 11.682 23.481 11.735 23.562 11.862 23.917 12.375 24.196 12.761 24.33 13.018 24.511 13.3 24.668 13.609 24.849 13.939 25.031 14.31 25.235 14.73 25.35 14.988 25.455 15.239 25.546 15.504 25.635 15.743 25.703 15.994 25.773 16.229 25.861 16.688 25.93 17.157 25.978 17.573 25.978 18.16 25.946 18.368 25.9 18.727 25.837 19.05 25.74 19.342 25.703 19.461 25.635 19.605 25.578 19.705 25.502 19.828 25.435 19.906 25.35 20.006 25.274 20.087 25.192 20.156 25.095 20.198 25.007 20.24 24.935 20.264 24.825 20.264 24.755 20.24 24.621 20.175 24.56 20.132 24.495 20.087 24.425 20.025 24.354 19.956 24.236 19.828 24.097 19.648 23.988 19.461 23.879 19.312 23.772 19.139 23.622 18.831 23.452 18.51 23.433 18.499 23.405 18.499 23.336 18.549 23.296 18.634 23.23 18.738 23.115 19.049 22.941 19.492 22.719 20.025 22.551 20.291 22.376 20.568 22.167 20.88 21.946 21.185 21.833 21.323 21.696 21.474 21.38 21.778 21.408 21.805 21.45 21.849 21.608 21.939 22.265 22.249 22.551 22.407 22.825 22.56 23.095 22.754 23.336 22.953 23.452 23.043 23.54 23.147 23.63 23.267 23.705 23.398 23.745 23.506 23.794 23.636 23.816 23.748 23.839 23.88 23.816 23.967 23.816 24.057 23.794 24.149 23.745 24.233 23.726 24.299 23.682 24.379 23.563 24.538 23.452 24.666 23.367 24.761 23.296 24.832 23.115 24.961 22.91 25.074 22.691 25.182 22.457 25.286 22.195 25.386 22.055 25.428 21.931 25.462 21.628 25.531 21.314 25.597 20.999 25.663 20.656 25.718 20.303 25.732 19.941 25.775 18.816 25.775 18.411 25.752 18.033 25.718 17.626 25.663 17.222 25.621 16.797 25.563 16.385 25.462 15.983 25.386 15.583 25.274 15.173 25.131 14.771 25.012 14.559 24.942 14.371 24.877 14.252 24.832 14.134 24.807 13.8 24.807 13.413 24.781 13.218 24.761 12.966 24.734 12.805 24.877 12.585 25.012 12.286 25.154 11.956 25.332 11.755 25.428 11.545 25.504 11.082 25.69 10.83 25.752 10.566 25.822 10.2 25.891 9.971 25.909 9.729 25.929 9.476 25.957 9.182 25.967 7.979 25.967 7.299 25.957 6.64 25.891 6.306 25.845 5.983 25.798 5.67 25.752 5.356 25.69 5.063 25.597 4.772 25.531 4.509 25.428 4.261 25.332 4.029 25.224 3.828 25.105 3.628 24.961 3.56 24.891 3.471 24.807 3.403 24.734 3.342 24.649 3.286 24.565 3.242 24.48 3.179 24.299 3.157 24.206 3.129 24.102 3.129 24.006 3.157 23.898 3.157 23.79 3.179 23.683 3.179 23.466 3.189 23.351 3.242 23.22 3.286 23.089 3.365 22.931 3.423 22.87 3.471 22.799 3.596 22.649 3.695 22.572 3.789 22.518 3.876 22.449 4.013 22.407 4.124 22.341 4.261 22.272 4.417 22.226 4.574 22.179 4.757 22.14 4.929 22.118 5.134 22.091 5.356 22.075 5.413 22.056 5.426 22.056 5.454 22.033 5.454 22.006 5.413 21.952 5.295 21.897 5.001 21.648 4.803 21.493 4.574 21.297 4.344 21.077 4.104 20.797 3.828 20.48 3.725 20.309 3.589 20.133 3.471 19.928 3.365 19.705 3.222 19.492 3.129 19.25 3.018 19.008 2.907 18.738 2.826 18.48 2.75 18.16 2.727 18.148 2.703 18.148 2.691 18.125 2.663 18.125 2.616 18.148 2.593 18.16 2.561 18.214 2.55 18.279 2.525 18.337 2.484 18.434 2.349 18.668 2.279 18.811 2.168 18.935 2.05 19.084 1.92 19.25 1.783 19.397 1.621 19.539 1.472 19.673 1.307 19.779 1.126 19.89 0.953 19.956 0.748 20.006 0.547 20.025 0.5 20.025 0.454 20.006 0.417 19.928 0.358 19.89 0.281 19.705 0.233 19.605 0.181 19.461 0.139 19.312 0.116 19.165 0.052 18.831 0.028 18.634 0.028 17.987 0.052 17.504 0.092 17.258 0.139 17.004 0.181 16.73 0.257 16.476 0.342 16.183 0.43 15.897 0.547 15.603 0.658 15.323 0.811 15.039 0.953 14.73 1.126 14.441 1.331 14.129 1.538 13.848 1.755 13.536 1.936 13.319 2.168 13.07 2.412 12.818 2.526 12.699 2.663 12.564 2.863 12.395 3.069 12.221 3.403 11.928 3.655 11.747z" transform="translate(-27 -522) translate(10 220) translate(2 280) translate(15 22)"/>
                </g>
            </g>
        </g>
    </g>
</svg>
