<svg xmlns="http://www.w3.org/2000/svg" width="26" height="26" viewBox="0 0 26 26">
    <g fill="none" fill-rule="evenodd">
        <g fill="#FFF">
            <g>
                <g>
                    <path d="M25.997 7.15H0v-2.6c0-.718.582-1.3 1.3-1.3h23.398c.717 0 1.3.582 1.3 1.3v2.6zm0 1.3v11.698c0 .718-.582 1.3-1.3 1.3H1.3c-.718 0-1.3-.582-1.3-1.3V8.45h25.997zM2.6 12.35v1.299h12.998v-1.3H2.6zm0 3.899v1.3h9.099v-1.3h-9.1zm18.198-1.3l-1.3 2.6h2.6l1.3-2.6h-2.6z" transform="translate(-27 -242) translate(10 220) translate(2) translate(15 22)"/>
                </g>
            </g>
        </g>
    </g>
</svg>
