<svg xmlns="http://www.w3.org/2000/svg" xmlns:xlink="http://www.w3.org/1999/xlink" width="22" height="22" viewBox="0 0 22 22">
    <defs>
        <linearGradient id="38yr4wglrc" x1="50%" x2="50%" y1="0%" y2="100%">
            <stop offset="0%" stop-color="#E3CABC"/>
            <stop offset="100%" stop-color="#DEAF90"/>
        </linearGradient>
        <filter id="gtev7j0mea" width="213.6%" height="213.6%" x="-56.8%" y="-38.6%" filterUnits="objectBoundingBox">
            <feOffset dy="4" in="SourceAlpha" result="shadowOffsetOuter1"/>
            <feGaussianBlur in="shadowOffsetOuter1" result="shadowBlurOuter1" stdDeviation="3.5"/>
            <feColorMatrix in="shadowBlurOuter1" values="0 0 0 0 0.0856717042 0 0 0 0 0.0908243452 0 0 0 0 0.147503397 0 0 0 0.543405813 0"/>
        </filter>
        <path id="p1lheqjofb" d="M20.152 3.476h-1.045v-.528C19.107 1.32 17.787 0 16.159 0H5.841C4.213 0 2.893 1.32 2.893 2.948v.528H1.848C.825 3.476 0 4.301 0 5.319v2.469c0 3.124 1.975 5.78 4.741 6.803 1.139 1.343 2.717 2.3 4.521 2.635v1.298H5.687c-.96 0-1.738.778-1.738 1.738S4.727 22 5.687 22h10.626c.957 0 1.738-.781 1.738-1.738s-.775-1.733-1.738-1.738h-3.575v-1.298c1.799-.335 3.383-1.292 4.521-2.634C20.026 13.567 22 10.912 22 7.787v-2.47c0-1.017-.825-1.842-1.848-1.842zm-7.414 7.64c0 .96-.778 1.738-1.738 1.738s-1.738-.779-1.738-1.738V5.698c0-.957.775-1.732 1.738-1.738.46 0 .903.183 1.229.509.326.326.509.768.509 1.229v5.418z"/>
    </defs>
    <g fill="none" fill-rule="evenodd">
        <g>
            <g>
                <g>
                    <g transform="translate(-108 -744) translate(0 729) translate(108 15)">
                        <use fill="#000" filter="url(#gtev7j0mea)" xlink:href="#p1lheqjofb"/>
                        <use fill="url(#38yr4wglrc)" xlink:href="#p1lheqjofb"/>
                    </g>
                </g>
            </g>
        </g>
    </g>
</svg>
