<svg xmlns="http://www.w3.org/2000/svg" xmlns:xlink="http://www.w3.org/1999/xlink" width="22" height="22" viewBox="0 0 22 22">
    <defs>
        <linearGradient id="cpoq1xsxtc" x1="50%" x2="50%" y1="0%" y2="100%">
            <stop offset="0%" stop-color="#E3CABC"/>
            <stop offset="100%" stop-color="#DEAF90"/>
        </linearGradient>
        <filter id="c9r6z1c4xa" width="213.6%" height="213.6%" x="-56.8%" y="-38.6%" filterUnits="objectBoundingBox">
            <feOffset dy="4" in="SourceAlpha" result="shadowOffsetOuter1"/>
            <feGaussianBlur in="shadowOffsetOuter1" result="shadowBlurOuter1" stdDeviation="3.5"/>
            <feColorMatrix in="shadowBlurOuter1" values="0 0 0 0 0.0856717042 0 0 0 0 0.0908243452 0 0 0 0 0.147503397 0 0 0 0.543405813 0"/>
        </filter>
        <path id="8s51asuwtb" d="M11 0c1.764-.002 3.502.42 5.067 1.234 1.39-.598 2.912-.897 4.558-.897.613 0 1.012.646.738 1.194-.499.995-.988 1.994-1.468 2.997C21.266 6.408 22.003 8.674 22 11c0 6.075-4.925 11-11 11S0 17.075 0 11 4.925 0 11 0zM6.325 7.212c-.608 0-1.1.493-1.1 1.1v1.65c0 .393.21.756.55.953.34.196.76.196 1.1 0 .34-.197.55-.56.55-.953v-1.65c0-.607-.492-1.1-1.1-1.1zm4.4 0c-.608 0-1.1.493-1.1 1.1v1.65c0 .393.21.756.55.953.34.196.76.196 1.1 0 .34-.197.55-.56.55-.953v-1.65c0-.607-.492-1.1-1.1-1.1z"/>
    </defs>
    <g fill="none" fill-rule="evenodd">
        <g>
            <g>
                <g>
                    <g transform="translate(-316 -744) translate(0 729) translate(316 15)">
                        <use fill="#000" filter="url(#c9r6z1c4xa)" xlink:href="#8s51asuwtb"/>
                        <use fill="url(#cpoq1xsxtc)" xlink:href="#8s51asuwtb"/>
                    </g>
                </g>
            </g>
        </g>
    </g>
</svg>
