<svg xmlns="http://www.w3.org/2000/svg" xmlns:xlink="http://www.w3.org/1999/xlink" width="22" height="22" viewBox="0 0 22 22">
    <defs>
        <linearGradient id="2iwxazpsbc" x1="50%" x2="50%" y1="0%" y2="100%">
            <stop offset="0%" stop-color="#E3CABC"/>
            <stop offset="100%" stop-color="#DEAF90"/>
        </linearGradient>
        <filter id="jpj1uvd42a" width="221.2%" height="213.6%" x="-60.6%" y="-38.6%" filterUnits="objectBoundingBox">
            <feOffset dy="4" in="SourceAlpha" result="shadowOffsetOuter1"/>
            <feGaussianBlur in="shadowOffsetOuter1" result="shadowBlurOuter1" stdDeviation="3.5"/>
            <feColorMatrix in="shadowBlurOuter1" values="0 0 0 0 0.0856717042 0 0 0 0 0.0908243452 0 0 0 0 0.147503397 0 0 0 0.543405813 0"/>
        </filter>
        <path id="jvfh9q1nfb" d="M11.217 2.063c1.075-.003 1.858-.023 1.858 0h1.138v1.031c0 1.139.955 2.063 2.133 2.063 1.179 0 2.134-.924 2.134-2.063V2.063h1.778c.59 0 1.067.462 1.067 1.031v17.875c0 .57-.478 1.031-1.067 1.031H1.767C1.177 22 .7 21.538.7 20.969V3.094c0-.57.477-1.031 1.067-1.031h1.778v1.031c0 1.139.955 2.063 2.133 2.063 1.18 0 2.134-.924 2.134-2.063V2.063H8.95c0 .01.884 0 2.062 0zm4.418 14.958H6.39c-.426 0-.77.346-.77.771 0 .425.344.77.77.77h9.245c.426 0 .77-.345.77-.77 0-.425-.344-.77-.77-.77zm0-3.982H6.39c-.426 0-.77.345-.77.77 0 .426.344.771.77.771h9.245c.426 0 .77-.345.77-.77 0-.426-.344-.77-.77-.77zm0-3.982H6.39c-.426 0-.77.345-.77.77 0 .426.344.771.77.771h9.245c.426 0 .77-.345.77-.77 0-.426-.344-.771-.77-.771zM16.346 0c.59 0 1.067.462 1.067 1.032v2.062c0 .57-.477 1.031-1.067 1.031-.589 0-1.066-.462-1.066-1.031V1.032c0-.57.477-1.032 1.066-1.032zM5.678 0c.59 0 1.067.462 1.067 1.032v2.062c0 .57-.477 1.031-1.067 1.031s-1.067-.462-1.067-1.031V1.032C4.611.462 5.09 0 5.678 0z"/>
    </defs>
    <g fill="none" fill-rule="evenodd">
        <g>
            <g>
                <g>
                    <g>
                        <g transform="translate(-313 -189) translate(38 41) translate(275 148)">
                            <use fill="#000" filter="url(#jpj1uvd42a)" xlink:href="#jvfh9q1nfb"/>
                            <use fill="url(#2iwxazpsbc)" xlink:href="#jvfh9q1nfb"/>
                        </g>
                    </g>
                </g>
            </g>
        </g>
    </g>
</svg>
