<svg xmlns="http://www.w3.org/2000/svg" width="17" height="16" viewBox="0 0 17 16">
    <g fill="none" fill-rule="evenodd">
        <g fill="#FFF">
            <path d="M5.198.749h-3.56C.734.749 0 1.427 0 2.33v3.616c0 .904.734 1.582 1.582 1.582h3.616c.904 0 1.582-.735 1.582-1.582V2.33c0-.904-.678-1.582-1.582-1.582zM5.65 5.89c0 .283-.226.452-.452.452h-3.56c-.282 0-.452-.226-.452-.452V2.33c0-.282.226-.451.452-.451h3.56c.282 0 .452.226.452.452V5.89zm9.887-2.881L12.995.466c-.622-.621-1.639-.621-2.26 0L8.192 3.01c-.282.282-.452.678-.452 1.13 0 .452.17.847.452 1.13l2.543 2.542c.282.283.678.452 1.13.452.452 0 .847-.17 1.13-.452l2.542-2.542c.283-.283.452-.678.452-1.13.057-.452-.113-.848-.452-1.13zm-.79 1.412l-2.543 2.543c-.17.169-.452.169-.678 0L8.983 4.42c-.17-.17-.17-.452 0-.678l2.543-2.542c.113-.113.226-.113.339-.113.113 0 .226.056.339.113l2.542 2.542c.113.113.113.226.113.34.057.169 0 .282-.113.338zm-9.55 4.803H1.639c-.904 0-1.582.734-1.582 1.581v3.616c0 .904.735 1.582 1.582 1.582h3.56c.904 0 1.582-.734 1.582-1.582v-3.616c0-.904-.678-1.581-1.582-1.581zm.453 5.14c0 .283-.226.453-.452.453h-3.56c-.282 0-.452-.226-.452-.452v-3.56c0-.282.226-.452.452-.452h3.56c.282 0 .452.226.452.452v3.56zm8.023-5.14h-3.616c-.904 0-1.582.734-1.582 1.581v3.616c0 .904.734 1.582 1.582 1.582h3.616c.904 0 1.582-.734 1.582-1.582v-3.616c0-.904-.678-1.581-1.582-1.581zm.452 5.14c0 .283-.226.453-.452.453h-3.616c-.283 0-.452-.226-.452-.452v-3.56c0-.282.226-.452.452-.452h3.616c.282 0 .452.226.452.452v3.56z" transform="translate(-339 -16) translate(339 16)"/>
        </g>
    </g>
</svg>
