<svg xmlns="http://www.w3.org/2000/svg" width="16" height="16" viewBox="0 0 16 16">
    <g fill="none" fill-rule="evenodd">
        <g fill="#606070">
            <g>
                <g>
                    <g>
                        <path d="M15.59 6.806l-1.148-1.324c-.08-.092-.128-.207-.135-.328l-.112-1.735c-.053-.835-.724-1.504-1.575-1.572l-1.767-.14c-.123-.009-.24-.057-.332-.138L9.19.421C8.55-.133 7.591-.141 6.941.4l-1.35 1.127c-.094.078-.212.125-.335.132l-1.77.11c-.851.052-1.534.71-1.603 1.545l-.142 1.732c-.01.12-.06.235-.141.326L.429 6.676c-.565.628-.573 1.567-.02 2.204l1.15 1.323c.08.093.127.208.135.329l.111 1.734c.054.836.725 1.506 1.576 1.573l1.767.139c.123.01.24.058.332.138l1.33 1.15c.64.553 1.598.56 2.248.018l1.35-1.126c.094-.078.211-.125.335-.133l1.769-.109c.852-.052 1.535-.71 1.604-1.544l.142-1.732c.01-.12.06-.235.14-.326l1.173-1.304c.564-.628.573-1.567.02-2.204zm-4.075-.215l-.445.44-1.927 1.898-1.219 1.2c-.21.206-.549.195-.76 0l-.319-.297-1.378-1.279-.868-.806c-.218-.202-.192-.54 0-.745.2-.213.555-.19.76 0l.319.297 1.378 1.279.477.443.077-.076 1.928-1.898 1.218-1.2c.212-.209.546-.193.76 0 .214.193.198.549 0 .744z" transform="translate(-38 -541) translate(12 324) translate(0 200) translate(26 17)"/>
                    </g>
                </g>
            </g>
        </g>
    </g>
</svg>
