<svg xmlns="http://www.w3.org/2000/svg" width="24" height="25" viewBox="0 0 24 25">
    <g fill="none" fill-rule="evenodd">
        <g fill="#0047cc" fill-rule="nonzero">
            <g>
                <path d="M17.914 3.131V1.954c0-.525-.431-.954-.957-.954H6.471c-.525 0-.954.432-.954.954v1.154C3.544 3.484 2.009 5.08 2 7.086c.009 2.263 1.964 4.007 4.298 4.054.922 1.45 2.577 2.695 4.527 2.994v1.125h-.056c-.285 0-.517.232-.517.516 0 .041.006.082.012.12H9.77c-.308 0-.555.25-.555.555 0 .112.032.22.09.309h-2.14c-.525 0-.953.431-.953.954v4.333c0 .525.431.954.954.954h8.983c.525 0 .954-.429.954-.954v-4.333c0-.526-.426-.954-.951-.954h-2.14c.059-.088.09-.194.09-.309 0-.308-.249-.554-.554-.554h-.493c.009-.039.012-.08.012-.12 0-.285-.232-.517-.517-.517h-.059v-1.11c2.002-.267 3.708-1.535 4.644-3.015 2.281-.1 4.169-1.82 4.178-4.051-.009-1.967-1.483-3.54-3.4-3.952zM3.43 7.09c.006-1.145.854-2.173 2.087-2.507v4.154c0 .29.038.59.112.889-1.292-.302-2.196-1.36-2.2-2.536zm10.853 11.24v3.1H9.037v-3.1h5.246zM9.976 9.28V8.272h1.116V6.12c-.426.188-.755.3-.995.332v-1.02c.643-.137 1.08-.39 1.309-.75h.98v3.59h1.069l.006 1.007H9.976zm7.836.314c.07-.29.105-.576.105-.857V4.614c1.169.37 1.967 1.365 1.97 2.472-.003 1.142-.848 2.166-2.075 2.507z" transform="translate(-143 -96) translate(143 96)"/>
            </g>
        </g>
    </g>
</svg>
