<svg xmlns="http://www.w3.org/2000/svg" width="24" height="25" viewBox="0 0 24 25">
    <g fill="none" fill-rule="evenodd">
        <g fill="#0047cc" fill-rule="nonzero">
            <g>
                <path d="M20.001 3.057h-3.306c-.157-.677-.781-1.198-1.51-1.198h-1.64C13.335 1.34 12.84 1 12.268 1c-.573 0-1.068.338-1.276.86H9.327c-.73 0-1.354.52-1.51 1.197H4.51C3.65 3.057 3 3.76 3 4.619v16.819C3 22.297 3.677 23 4.51 23h15.465c.86 0 1.588-.703 1.588-1.562V4.618c.026-.858-.703-1.561-1.562-1.561zm-7.706.755c.703 0 1.25.573 1.25 1.25 0 .702-.573 1.25-1.25 1.25-.703 0-1.25-.574-1.25-1.25 0-.677.547-1.25 1.25-1.25zm4.764 12.94c0 .312-.26.572-.573.572H8.103c-.312 0-.573-.26-.573-.573v-.52c0-.313.26-.573.573-.573h8.383c.313 0 .573.26.573.573v.52zm0-5.286c0 .313-.26.573-.573.573H8.103c-.312 0-.573-.26-.573-.573v-.52c0-.313.26-.573.573-.573h8.383c.313 0 .573.26.573.573v.52z" transform="translate(-280 -96) translate(280 96)"/>
            </g>
        </g>
    </g>
</svg>
