<svg xmlns="http://www.w3.org/2000/svg" width="24" height="24" viewBox="0 0 24 24">
    <g fill="none" fill-rule="evenodd">
        <g fill="#757575" fill-rule="nonzero">
            <g>
                <g>
                    <path d="M4.862 1c.593-.003 1.082.466 1.104 1.059.023.593-.43 1.096-1.021 1.138l-.083.003H4.3c-.576 0-1.054.443-1.097 1.018L3.2 4.3v15.4c0 .576.443 1.054 1.017 1.097l.083.003h15.4c.576 0 1.054-.443 1.097-1.017l.003-.083V4.3c0-.576-.443-1.054-1.018-1.097L19.7 3.2h-.52c-.593.002-1.081-.466-1.103-1.059-.022-.593.43-1.096 1.021-1.138L19.181 1h.519c1.774 0 3.231 1.403 3.298 3.176L23 4.3v15.4c0 1.774-1.403 3.231-3.176 3.298L19.7 23H4.3c-1.774 0-3.231-1.403-3.298-3.176L1 19.7V4.3c0-1.774 1.403-3.231 3.176-3.298L4.3 1h.562zM16.4 13.65c.393 0 .756.21.953.55.196.34.196.76 0 1.1-.197.34-.56.55-.953.55H7.6c-.393 0-.756-.21-.953-.55-.196-.34-.196-.76 0-1.1.197-.34.56-.55.953-.55h8.8zm0-6.05c.393 0 .756.21.953.55.196.34.196.76 0 1.1-.197.34-.56.55-.953.55H7.6c-.393 0-.756-.21-.953-.55-.196-.34-.196-.76 0-1.1.197-.34.56-.55.953-.55h8.8zM15.37 1c.593-.003 1.082.466 1.104 1.059.022.593-.43 1.096-1.022 1.138l-.082.003H8.784c-.594.003-1.082-.466-1.105-1.059-.022-.593.43-1.096 1.022-1.138L8.784 1h6.586z" transform="translate(-245 -1392) translate(0 1362) translate(245 30)"/>
                </g>
            </g>
        </g>
    </g>
</svg>
