<svg xmlns="http://www.w3.org/2000/svg" width="24" height="24" viewBox="0 0 24 24">
    <g fill="none" fill-rule="evenodd">
        <g fill="#757575" fill-rule="nonzero">
            <g>
                <g>
                    <path d="M19.331 21.163c.485 0 .886.38.914.863.029.484-.325.907-.807.964l-.107.006H4.667c-.485 0-.885-.379-.913-.863-.028-.484.325-.906.807-.963l.105-.007h14.665zM12.685 1.307l.074.094 4.44 6.53 4.261-3.938c.595-.55 1.519-.111 1.54.636l-.004.1-.013.102-2.52 13.748c-.073.395-.394.697-.793.745l-.11.006H4.438c-.402 0-.757-.261-.875-.645l-.026-.106L1.017 4.83C.862 4 1.811 3.441 2.46 3.927l.079.066 4.259 3.939 4.443-6.53c.159-.234.416-.382.698-.4.282-.018.557.094.745.305zm-.687 2.238L7.716 9.843c-.14.204-.355.344-.599.386-.244.043-.494-.014-.695-.16L6.337 10 3.314 7.206l1.888 10.291h13.594l1.888-10.291L17.662 10c-.348.323-.885.326-1.237.008l-.075-.077-.067-.088-4.285-6.298zm1.834 10.286c.485 0 .886.379.914.863.028.484-.325.907-.807.964l-.107.006h-3.666c-.485 0-.885-.38-.913-.863-.028-.484.325-.906.807-.963l.105-.007h3.667z" transform="translate(-315 -1392) translate(0 1362) translate(315 30)"/>
                </g>
            </g>
        </g>
    </g>
</svg>
