<svg xmlns="http://www.w3.org/2000/svg" width="24" height="25" viewBox="0 0 24 25">
    <g fill="none" fill-rule="evenodd">
        <g fill="#77869E" fill-rule="nonzero">
            <g>
                <path d="M10.81 1.385c.759-.517 1.757-.513 2.513.009l7.707 5.328c.6.414.958 1.097.958 1.827v12.23c0 1.227-.994 2.221-2.221 2.221H4.221C2.994 23 2 22.006 2 20.78V8.558c0-.735.363-1.422.97-1.836l7.84-5.338zm5.626 16.042H7.552c-.613 0-1.11.497-1.11 1.11v.026c0 .613.497 1.11 1.11 1.11h8.884c.613 0 1.11-.497 1.11-1.11v-.025c0-.614-.497-1.11-1.11-1.11z" transform="translate(-70 -96) translate(70 96)"/>
            </g>
        </g>
    </g>
</svg>
