<svg xmlns="http://www.w3.org/2000/svg" width="48" height="48" viewBox="0 0 48 48">
    <g fill="none" fill-rule="evenodd">
        <g>
            <g transform="translate(-200 -75) translate(200 75)">
                <circle cx="24" cy="24" r="24" fill="#0047CC"/>
                <path fill="#A6E8FF" fill-rule="nonzero" stroke="#93EAFF" d="M23.983 32c.296 0 .558-.122.759-.314.192-.191.314-.462.314-.758v-5.865h5.87c.298 0 .56-.122.76-.313.192-.192.314-.462.314-.759 0-.592-.48-1.072-1.064-1.063h-5.872v-5.865c0-.592-.48-1.072-1.064-1.063-.593 0-1.073.48-1.064 1.063v5.865h-5.872c-.593 0-1.073.48-1.064 1.063 0 .593.48 1.072 1.064 1.064h5.872v5.864c-.026.602.453 1.081 1.047 1.081z"/>
            </g>
        </g>
    </g>
</svg>
