<svg xmlns="http://www.w3.org/2000/svg" width="24" height="24" viewBox="0 0 24 24">
    <defs>
        <linearGradient id="va5e7mw2oa" x1="0%" x2="100%" y1="50%" y2="50%">
            <stop offset="0%" stop-color="#FA6E46"/>
            <stop offset="100%" stop-color="#F28E26"/>
        </linearGradient>
    </defs>
    <g fill="none" fill-rule="evenodd">
        <g fill="url(#va5e7mw2oa)" fill-rule="nonzero" transform="translate(-34 -1393)">
            <g>
                <g>
                    <path d="M5.827 9.057l5.06-5.06c.245-.245.57-.368.893-.368.326 0 .648.123.895.369l5.078 5.078 5.307 5.307c.052.052.14.036.17-.03.216-.49.33-1.022.33-1.572 0-1.042-.404-2.018-1.14-2.754l-7.886-7.889c-1.52-1.517-3.99-1.517-5.51 0L1.14 10.025C.405 10.76 0 11.736 0 12.778c0 .55.115 1.086.33 1.573.031.065.118.082.17.03l5.327-5.324zm-2.59 4.391c-.147.148-.229.348-.229.555v6.309C3.008 21.797 4.211 23 5.696 23h2.825c.284 0 .517-.23.517-.517v-6.1c0-.312.385-.452.661-.452h4.165c.317 0 .662.173.662.451v6.101c0 .285.23.517.517.517h2.824c1.485 0 2.688-1.206 2.688-2.688v-6.309c0-.207-.082-.407-.23-.555L12.11 5.236c-.184-.183-.476-.183-.66 0l-8.211 8.212z" transform="translate(0 1362) translate(34 31)"/>
                </g>
            </g>
        </g>
    </g>
</svg>
