<svg xmlns="http://www.w3.org/2000/svg" width="24" height="24" viewBox="0 0 24 24">
    <g fill="none" fill-rule="evenodd">
        <g fill="#F28E26" fill-rule="nonzero">
            <g>
                <g>
                    <path d="M11.992 1c4.683 0 8.48 3.797 8.48 8.48 0 1.772-.544 3.417-1.473 4.777L23 18.258l-4.021.677-.715 4.036-5.093-5.093c-.385.054-.779.082-1.18.082-.395 0-.784-.027-1.164-.08l-5.091 5.091-.715-4.036L1 18.258l3.99-3.99c-.932-1.363-1.479-3.011-1.479-4.788 0-4.683 3.797-8.48 8.48-8.48zM6.016 15.497L4.314 17.2l2.081.35.377 2.13 2.253-2.252c-1.139-.425-2.162-1.089-3.01-1.93zm11.96-.008c-.846.842-1.868 1.507-3.006 1.934l2.258 2.257.377-2.13 2.08-.35zM11.992 2.701c-.916 0-1.804.178-2.639.532-.807.341-1.532.83-2.155 1.453-.624.623-1.113 1.349-1.454 2.156-.353.835-.532 1.722-.532 2.638 0 .916.179 1.804.532 2.639.341.807.83 1.532 1.454 2.155.623.623 1.348 1.112 2.155 1.454.835.353 1.723.532 2.639.532.916 0 1.803-.18 2.638-.532.807-.342 1.532-.83 2.156-1.454.623-.623 1.112-1.348 1.453-2.155.353-.835.532-1.723.532-2.639 0-.916-.179-1.803-.532-2.638-.341-.807-.83-1.533-1.453-2.156-.624-.623-1.349-1.112-2.156-1.453-.835-.353-1.722-.532-2.638-.532zm.015 2.736l1.755 4.095 2.93-2.013-1.304 5.354-6.721.052-1.463-5.378 3.083 2.009 1.72-4.119z" transform="translate(-106 -1393) translate(0 1362) translate(106 31)"/>
                </g>
            </g>
        </g>
    </g>
</svg>
