<svg xmlns="http://www.w3.org/2000/svg" width="24" height="25" viewBox="0 0 24 25">
    <g fill="none" fill-rule="evenodd">
        <g fill="#757575" fill-rule="nonzero">
            <g>
                <path d="M12.035 5.176l.074.06 8.217 8.212c.118.118.194.27.22.432l.01.123v6.309c0 1.425-1.113 2.595-2.519 2.683l-.17.005h-2.824c-.256 0-.465-.184-.509-.424l-.008-.093v-6.1c0-.252-.28-.416-.566-.447l-.096-.005H9.7c-.248 0-.585.113-.65.363l-.011.088v6.101c0 .255-.184.465-.425.509L8.521 23H5.696c-1.428 0-2.595-1.112-2.683-2.518l-.005-.17v-6.309c0-.166.052-.327.15-.46l.08-.095 8.211-8.212c.16-.16.405-.18.586-.06zm-.256 2.558l-6.772 6.772.001 5.806c0 .346.254.631.586.68l.102.008h1.341v-4.618c0-1.62 1.257-2.39 2.512-2.447l.15-.004h4.165c1.262 0 2.554.77 2.655 2.261l.007.19L16.525 21h1.342c.345 0 .632-.256.681-.587l.007-.101v-5.807l-6.776-6.771zM9.024 2.138c1.52-1.517 3.99-1.517 5.51 0l7.886 7.89c.736.735 1.14 1.711 1.14 2.753 0 .55-.114 1.083-.33 1.572-.03.066-.118.082-.17.03L12.675 3.998c-.247-.246-.57-.37-.895-.37-.322 0-.648.124-.894.37L5.827 9.057.5 14.38c-.052.052-.139.035-.17-.03-.215-.487-.33-1.023-.33-1.573 0-1.042.405-2.018 1.14-2.753z" transform="translate(-475 -102) translate(475 102)"/>
            </g>
        </g>
    </g>
</svg>
