<svg xmlns="http://www.w3.org/2000/svg" xmlns:xlink="http://www.w3.org/1999/xlink" width="66" height="66" viewBox="0 0 66 66">
    <defs>
        <linearGradient id="ilrli082qc" x1="0%" x2="100%" y1="50%" y2="50%">
            <stop offset="0%" stop-color="#FA6E46"/>
            <stop offset="100%" stop-color="#F28E26"/>
        </linearGradient>
        <filter id="dytmivyk6a" width="156.2%" height="156.2%" x="-28.1%" y="-28.1%" filterUnits="objectBoundingBox">
            <feOffset in="SourceAlpha" result="shadowOffsetOuter1"/>
            <feGaussianBlur in="shadowOffsetOuter1" result="shadowBlurOuter1" stdDeviation="4.5"/>
            <feColorMatrix in="shadowBlurOuter1" values="0 0 0 0 0.960784314 0 0 0 0 0.501960784 0 0 0 0 0.203921569 0 0 0 1 0"/>
        </filter>
        <circle id="jxfy7o5iqb" cx="33" cy="33" r="24"/>
    </defs>
    <g fill="none" fill-rule="evenodd">
        <g fill-rule="nonzero">
            <g>
                <g>
                    <g transform="translate(-155 -1362) translate(0 1362) translate(155)">
                        <use fill="#000" filter="url(#dytmivyk6a)" xlink:href="#jxfy7o5iqb"/>
                        <use fill="url(#ilrli082qc)" xlink:href="#jxfy7o5iqb"/>
                    </g>
                    <path fill="#FFF" d="M33 22c6.076 0 11 4.924 11 11s-4.924 11-11 11-11-4.924-11-11 4.924-11 11-11zm.05 3.05c-4.421 0-8 3.579-8 8 0 4.423 3.579 8 8 8 4.423 0 8-3.577 8-8 0-4.421-3.577-8-8-8zM33.02 28c.961 0 1.769.262 2.402.764.633.502.96 1.113.96 1.855s-.284 1.375-.873 1.921c.808.633 1.2 1.44 1.179 2.445 0 .85-.35 1.55-1.026 2.139-.677.59-1.572.873-2.663.873-1.092 0-1.986-.284-2.663-.873-.677-.568-1.026-1.288-1.026-2.14 0-1.003.393-1.811 1.2-2.422-.567-.546-.85-1.179-.85-1.92 0-.743.327-1.376.96-1.878.654-.502 1.44-.764 2.4-.764zm.022 5.653c-.392 0-.764.11-1.07.328-.326.218-.48.545-.48.96 0 .415.154.72.48.939.328.218.678.327 1.049.327.37 0 .72-.11 1.047-.327.328-.219.524-.524.524-.939 0-.415-.174-.742-.48-.96-.327-.219-.677-.328-1.07-.328zm-.021-3.972c-.35 0-.655.109-.917.327-.262.218-.393.502-.393.83 0 .327.13.61.393.829.262.218.567.327.917.327.349 0 .654-.109.916-.327.262-.218.393-.502.393-.83 0-.327-.13-.61-.393-.829-.24-.218-.567-.327-.916-.327z" transform="translate(-155 -1362) translate(0 1362) translate(155)"/>
                </g>
            </g>
        </g>
    </g>
</svg>
